<svg width="22" height="22" viewBox="0 0 22 22" fill="none" xmlns="http://www.w3.org/2000/svg">
<path d="M21.5 20.75C21.5 20.9489 21.421 21.1397 21.2803 21.2803C21.1397 21.421 20.9489 21.5 20.75 21.5H1.25C1.05109 21.5 0.860322 21.421 0.71967 21.2803C0.579018 21.1397 0.5 20.9489 0.5 20.75C0.5 20.5511 0.579018 20.3603 0.71967 20.2197C0.860322 20.079 1.05109 20 1.25 20H20.75C20.9489 20 21.1397 20.079 21.2803 20.2197C21.421 20.3603 21.5 20.5511 21.5 20.75ZM10.4675 17.5325C10.5372 17.6028 10.6202 17.6586 10.7116 17.6967C10.803 17.7347 10.901 17.7543 11 17.7543C11.099 17.7543 11.197 17.7347 11.2884 17.6967C11.3798 17.6586 11.4628 17.6028 11.5325 17.5325L17.5325 11.5325C17.6737 11.3913 17.7531 11.1997 17.7531 11C17.7531 10.8003 17.6737 10.6087 17.5325 10.4675C17.3913 10.3263 17.1997 10.2469 17 10.2469C16.8003 10.2469 16.6087 10.3263 16.4675 10.4675L11.75 15.1925V1.25C11.75 1.05109 11.671 0.860322 11.5303 0.71967C11.3897 0.579018 11.1989 0.5 11 0.5C10.8011 0.5 10.6103 0.579018 10.4697 0.71967C10.329 0.860322 10.25 1.05109 10.25 1.25V15.1925L5.5325 10.4675C5.46257 10.3976 5.37955 10.3421 5.28819 10.3043C5.19682 10.2664 5.09889 10.2469 5 10.2469C4.90111 10.2469 4.80318 10.2664 4.71181 10.3043C4.62045 10.3421 4.53743 10.3976 4.4675 10.4675C4.39757 10.5374 4.3421 10.6204 4.30426 10.7118C4.26641 10.8032 4.24693 10.9011 4.24693 11C4.24693 11.1997 4.32627 11.3913 4.4675 11.5325L10.4675 17.5325Z" fill="white"/>
</svg>
