<svg width="26" height="26" viewBox="0 0 26 26" fill="none" xmlns="http://www.w3.org/2000/svg">
<path d="M23.6752 5.57447L24.6592 5.0783C24.8899 4.9618 25.0747 4.7709 25.1836 4.53644C25.2925 4.30199 25.3191 4.03767 25.2592 3.7862C25.1994 3.53473 25.0565 3.31079 24.8536 3.15055C24.6507 2.99032 24.3998 2.90316 24.1413 2.90315L23.2966 2.94221C22.9506 2.76468 22.5721 2.65911 22.1841 2.63188C21.7962 2.60465 21.4067 2.65632 21.0392 2.78377C18.7276 0.964728 15.8673 -0.0165676 12.9259 0.00021166C9.98437 0.0169909 7.13553 1.03085 4.84479 2.87615C2.55405 4.72144 0.95684 7.28908 0.314124 10.1595C-0.328591 13.03 0.0211832 16.0336 1.3063 18.6795C2.59142 21.3255 4.7359 23.4574 7.38937 24.7269C10.0428 25.9964 13.0484 26.3285 15.915 25.6689C18.7817 25.0094 21.3399 23.3971 23.1717 21.0955C25.0034 18.794 26.0005 15.9392 26 12.9977C26.0075 10.343 25.1956 7.75064 23.6752 5.57447ZM23.0136 3.66309C23.0776 3.7005 23.1511 3.71842 23.2251 3.71466L24.1029 3.67077H24.1402C24.2121 3.67027 24.2827 3.69033 24.3435 3.72858C24.4044 3.76684 24.4531 3.8217 24.4838 3.88671C24.5264 3.9767 24.5322 4.07972 24.5001 4.17394C24.468 4.26816 24.4005 4.34617 24.3118 4.39143L20.3398 6.39454L20.4094 5.57973C20.4154 5.5102 20.4023 5.44034 20.3715 5.3777C20.3407 5.31505 20.2934 5.26198 20.2348 5.2242C20.1761 5.18642 20.1082 5.16535 20.0384 5.16327C19.9687 5.16119 19.8997 5.17817 19.8388 5.21238L16.7866 6.93547C16.7118 6.9776 16.6532 7.04356 16.6203 7.12283C16.5874 7.2021 16.5819 7.29011 16.6048 7.37283L16.8261 8.16986L11.6691 10.7714C11.5027 10.8556 11.315 10.888 11.13 10.8642C10.9451 10.8405 10.7716 10.7617 10.632 10.6382L9.00126 9.19643C9.13158 9.12406 9.27747 9.08427 9.42649 9.08045C9.5755 9.07663 9.72324 9.10889 9.8571 9.17448L10.7544 9.6046C10.8118 9.63221 10.8752 9.64507 10.9389 9.642C11.0025 9.63894 11.0644 9.62005 11.1189 9.58704L20.9062 3.68218C21.2248 3.49393 21.5873 3.39303 21.9573 3.38968C22.3273 3.38633 22.6917 3.48064 23.0136 3.66309ZM17.4254 7.45688L19.5832 6.23983L19.1917 10.8173L18.4456 11.1326L17.4254 7.45688ZM16.1186 5.673L14.3544 4.12876L14.963 3.59243L17.7885 4.6653L16.1186 5.673ZM8.48007 1.6319C8.38293 2.13039 8.3529 2.63963 8.39076 3.14608C8.3969 3.22288 8.40458 3.29969 8.4127 3.37869C8.45242 3.7794 8.48973 4.15794 8.32931 4.42325C8.1689 4.68856 7.81274 4.83537 7.43836 4.98789L7.33215 5.03178C6.30821 5.45641 5.62596 5.99734 5.24741 6.68772C5.0311 7.12577 4.88083 7.59343 4.8015 8.0755C4.75366 8.30087 4.70845 8.51439 4.64788 8.72045C4.57547 8.9682 4.29085 9.78476 3.66389 9.89141C3.21007 9.968 2.78808 9.65178 2.29959 9.28443C2.05339 9.09171 1.79306 8.91779 1.52078 8.76412C2.11882 7.15546 3.04699 5.68981 4.24556 4.46145C5.44414 3.23309 6.88657 2.26924 8.48007 1.6319ZM0.763686 12.9977C0.763556 11.8147 0.935651 10.638 1.27456 9.50453C1.46021 9.61667 1.64586 9.7536 1.83788 9.898C2.32307 10.2634 2.86554 10.6715 3.52256 10.6715C3.61307 10.6719 3.70344 10.6646 3.7927 10.6496C4.51249 10.5274 5.10784 9.88703 5.38522 8.93792C5.45347 8.70355 5.50416 8.46655 5.55266 8.23745C5.61775 7.82947 5.74117 7.43296 5.91914 7.06012C6.211 6.5295 6.76927 6.09916 7.62511 5.74344L7.72759 5.70131C8.17921 5.51741 8.69096 5.30872 8.98568 4.82352C9.28039 4.33833 9.22465 3.78993 9.1766 3.30539C9.16957 3.23166 9.16211 3.15837 9.15641 3.08726C9.11134 2.49287 9.17408 1.89521 9.34162 1.32314C11.1806 0.747772 13.1295 0.614839 15.0296 0.935162C16.9297 1.25549 18.7272 2.02001 20.276 3.16648L18.624 4.16321L15.0191 2.79211C14.9538 2.76731 14.8829 2.7608 14.8142 2.77329C14.7454 2.78578 14.6814 2.81679 14.629 2.86299L13.5186 3.84172C13.4775 3.87776 13.4446 3.92215 13.4221 3.97191C13.3996 4.02167 13.3879 4.07567 13.3879 4.13029C13.3879 4.18492 13.3996 4.23891 13.4221 4.28868C13.4446 4.33844 13.4775 4.38282 13.5186 4.41886L15.4277 6.08929L10.8988 8.82249L10.19 8.48279C9.90712 8.3445 9.59119 8.28815 9.27794 8.32011C8.9647 8.35206 8.66666 8.47105 8.41753 8.66361L8.15617 8.86309C8.11112 8.89747 8.07423 8.9414 8.04816 8.99173C8.02209 9.04205 8.00748 9.09752 8.00538 9.15416C8.00328 9.2108 8.01375 9.2672 8.03603 9.31932C8.0583 9.37143 8.09184 9.41797 8.13423 9.45559L10.1231 11.2145C10.3777 11.4396 10.694 11.5832 11.0311 11.6265C11.3682 11.6699 11.7105 11.611 12.0138 11.4576L17.0356 8.92475L17.8212 11.7591C17.8359 11.8117 17.8616 11.8606 17.8966 11.9025C17.9316 11.9444 17.9751 11.9784 18.0243 12.0022C18.0735 12.0259 18.1271 12.0389 18.1817 12.0403C18.2363 12.0417 18.2906 12.0314 18.3409 12.0102L19.7039 11.4348C19.7683 11.4075 19.824 11.3633 19.8651 11.3067C19.9061 11.2501 19.931 11.1834 19.9369 11.1137L20.2637 7.29537L22.9813 5.92492C24.0965 7.49076 24.8228 9.29967 25.1001 11.2019C24.0894 11.2689 23.0941 11.4839 22.1459 11.8401C21.8167 11.9698 21.4935 12.1236 21.1803 12.2726C20.3662 12.6593 19.5933 13.0227 18.7894 12.979C18.2673 12.9183 17.7579 12.7765 17.2794 12.5588C17.0187 12.4572 16.7495 12.3523 16.4721 12.2669C15.3228 11.9158 14.2932 12.0993 13.7178 12.7589C13.1797 13.3753 13.1705 14.2566 13.1646 14.8399L13.1317 17.8992C13.1181 19.255 13.025 20.7274 12.0906 21.0388C9.34754 21.9531 8.52155 22.9882 8.33941 24.3086C7.52231 23.97 6.74442 23.5436 6.01942 23.0369C5.91335 22.8562 5.81688 22.6701 5.73041 22.4793C5.68866 22.3864 5.61172 22.3138 5.51649 22.2776C5.42127 22.2414 5.31556 22.2445 5.22261 22.2862C5.18694 22.3029 5.15413 22.3251 5.1254 22.352C3.75943 21.2059 2.66108 19.7744 1.90754 18.1584C1.154 16.5423 0.763568 14.7808 0.763686 12.9977ZM12.9978 25.2318C11.6637 25.2319 10.3387 25.0127 9.07565 24.5831C9.12634 23.7343 9.443 22.7301 12.3335 21.7667C13.8657 21.2563 13.8872 19.1593 13.8997 17.9065L13.9327 14.8472C13.939 14.2248 13.9715 13.6354 14.2967 13.2632C14.733 12.7629 15.5901 12.7993 16.2469 12.9999C16.4967 13.0769 16.7416 13.1721 17.0005 13.2733C17.5534 13.5222 18.1424 13.6814 18.7453 13.7449C19.7497 13.8015 20.6444 13.3767 21.5104 12.9654C21.8261 12.8153 22.1248 12.6736 22.429 12.5535C23.3153 12.223 24.2453 12.0244 25.1894 11.9643C25.2177 12.3062 25.2324 12.6505 25.2333 12.9972C25.2297 16.2411 23.9395 19.3511 21.6456 21.6448C19.3518 23.9385 16.2417 25.2285 12.9978 25.2318Z" fill="white"/>
<path d="M23.4548 9.85549C23.4873 9.9493 23.5547 10.0269 23.6431 10.0721C23.7315 10.1173 23.834 10.1265 23.929 10.0978C24.024 10.0691 24.1043 10.0048 24.1529 9.91825C24.2016 9.83172 24.2148 9.72972 24.19 9.63363C24.0586 9.19827 23.9019 8.77094 23.7208 8.35382C23.6802 8.26038 23.6042 8.18688 23.5094 8.14949C23.4147 8.1121 23.309 8.11388 23.2155 8.15445C23.1221 8.19502 23.0486 8.27104 23.0112 8.3658C22.9738 8.46055 22.9756 8.56628 23.0161 8.65972C23.1857 9.04937 23.3322 9.44864 23.4548 9.85549Z" fill="white"/>
<path d="M7.84284 12.579C7.89587 12.5791 7.94834 12.5682 7.99692 12.5469C8.0455 12.5257 8.08913 12.4945 8.12504 12.4555C8.2894 12.2764 8.46276 12.1058 8.64447 11.9444C8.68227 11.911 8.71311 11.8705 8.73525 11.8252C8.75739 11.7798 8.77038 11.7306 8.77349 11.6803C8.77659 11.6299 8.76976 11.5795 8.75336 11.5318C8.73697 11.4841 8.71134 11.4401 8.67794 11.4023C8.64454 11.3645 8.60402 11.3336 8.5587 11.3115C8.51338 11.2894 8.46414 11.2764 8.4138 11.2733C8.36346 11.2701 8.31299 11.277 8.26529 11.2934C8.21759 11.3098 8.17359 11.3354 8.1358 11.3688C7.93465 11.5476 7.74268 11.7365 7.56063 11.9348C7.51007 11.9896 7.47658 12.058 7.46426 12.1316C7.45194 12.2052 7.46132 12.2808 7.49125 12.3491C7.52118 12.4174 7.57037 12.4756 7.63281 12.5164C7.69525 12.5572 7.76823 12.579 7.84284 12.579Z" fill="white"/>
<path d="M4.89736 18.2681C4.92227 18.2733 4.94764 18.2759 4.97307 18.2758C5.06179 18.2758 5.14775 18.245 5.21633 18.1887C5.2849 18.1324 5.33186 18.0541 5.3492 17.9671C5.45267 17.4577 5.592 16.9562 5.76615 16.4665C5.79829 16.3709 5.79153 16.2665 5.74735 16.1758C5.70316 16.0852 5.62508 16.0156 5.52998 15.982C5.43489 15.9484 5.3304 15.9536 5.23909 15.9964C5.14778 16.0392 5.07698 16.1163 5.04198 16.2108C4.85608 16.7348 4.70751 17.2713 4.59738 17.8163C4.57733 17.916 4.59766 18.0196 4.6539 18.1043C4.71014 18.189 4.79771 18.2479 4.89736 18.2681Z" fill="white"/>
<path d="M5.86515 15.1994C5.95617 15.2451 6.06162 15.2528 6.15829 15.2207C6.25496 15.1886 6.33494 15.1195 6.38063 15.0285C6.61448 14.5622 6.87753 14.1111 7.16822 13.678C7.19916 13.6363 7.22133 13.5888 7.23339 13.5383C7.24545 13.4878 7.24715 13.4354 7.23838 13.3842C7.2296 13.333 7.21055 13.2842 7.18236 13.2406C7.15417 13.197 7.11744 13.1596 7.07438 13.1306C7.03132 13.1016 6.98283 13.0816 6.93183 13.0719C6.88083 13.0621 6.8284 13.0628 6.77768 13.074C6.72697 13.0851 6.67904 13.1063 6.63678 13.1365C6.59452 13.1667 6.55882 13.2051 6.53182 13.2494C6.22305 13.7095 5.94372 14.1886 5.69552 14.6839C5.67279 14.7289 5.65915 14.7779 5.65537 14.8282C5.6516 14.8785 5.65777 14.929 5.67352 14.9768C5.68927 15.0247 5.7143 15.069 5.74718 15.1072C5.78007 15.1454 5.82015 15.1767 5.86515 15.1994Z" fill="white"/>
<path d="M5.2828 21.0292C5.20607 20.6 5.16796 20.1648 5.16891 19.7288C5.16891 19.6535 5.17022 19.578 5.1722 19.5028C5.17511 19.4009 5.13744 19.3021 5.06748 19.228C4.99752 19.1539 4.90099 19.1107 4.79914 19.1078C4.69729 19.1049 4.59845 19.1425 4.52438 19.2125C4.4503 19.2824 4.40705 19.379 4.40414 19.4808C4.40172 19.5625 4.40063 19.6443 4.40041 19.7268C4.39944 20.2093 4.44167 20.6908 4.52659 21.1657C4.5427 21.2541 4.58929 21.3341 4.65825 21.3917C4.72721 21.4493 4.81418 21.4809 4.90404 21.4811C4.92723 21.4811 4.95037 21.479 4.97316 21.4747C5.07324 21.4566 5.16205 21.3995 5.2201 21.316C5.27815 21.2325 5.3007 21.1294 5.2828 21.0292Z" fill="white"/>
</svg>
