<svg width="96" height="96" viewBox="0 0 96 96" fill="none" xmlns="http://www.w3.org/2000/svg">
<path d="M87.4159 20.5826L91.0491 18.7506C91.9012 18.3205 92.5833 17.6156 92.9853 16.7499C93.3873 15.8843 93.4858 14.9083 93.2647 13.9798C93.0436 13.0513 92.5159 12.2244 91.767 11.6328C91.018 11.0412 90.0914 10.7194 89.1369 10.7193L86.0182 10.8635C84.7404 10.208 83.3431 9.81826 81.9105 9.71771C80.4779 9.61717 79.0398 9.80795 77.683 10.2785C69.1478 3.56207 58.587 -0.0611726 47.7261 0.000781512C36.8653 0.0627356 26.3465 3.80623 17.8884 10.6196C9.43031 17.433 3.53294 26.9135 1.15984 37.5121C-1.21326 48.1107 0.0782149 59.2009 4.82325 68.9705C9.56829 78.7402 17.4864 86.6119 27.2838 91.2994C37.0812 95.9868 48.1787 97.2131 58.7631 94.7776C69.3476 92.3422 78.7932 86.3892 85.5567 77.8911C92.3202 69.3931 96.0017 58.8525 95.9998 47.9914C96.0275 38.1895 93.0298 28.6177 87.4159 20.5826ZM84.973 13.5253C85.2093 13.6634 85.4807 13.7295 85.7541 13.7157L88.9951 13.5536H89.1328C89.3983 13.5518 89.6588 13.6258 89.8836 13.7671C90.1085 13.9083 90.2882 14.1109 90.4017 14.3509C90.5588 14.6832 90.5804 15.0636 90.4618 15.4115C90.3432 15.7593 90.0938 16.0474 89.7665 16.2145L75.1007 23.6106L75.3576 20.6021C75.3796 20.3453 75.3312 20.0874 75.2176 19.8561C75.104 19.6248 74.9295 19.4289 74.7128 19.2894C74.4961 19.1498 74.2455 19.0721 73.9879 19.0644C73.7303 19.0567 73.4755 19.1194 73.2509 19.2457L61.981 25.6079C61.7049 25.7635 61.4888 26.007 61.3672 26.2997C61.2456 26.5924 61.2255 26.9173 61.3101 27.2228L62.1268 30.1656L43.0857 39.7713C42.4716 40.0823 41.7782 40.2017 41.0954 40.114C40.4127 40.0263 39.772 39.7356 39.2564 39.2795L33.2353 33.956C33.7165 33.6888 34.2552 33.5419 34.8054 33.5278C35.3556 33.5137 35.9011 33.6328 36.3954 33.875L39.7085 35.4631C39.9206 35.5651 40.1547 35.6126 40.3897 35.6012C40.6247 35.5899 40.8531 35.5202 41.0544 35.3983L77.192 13.5958C78.3682 12.9007 79.7069 12.5281 81.073 12.5157C82.4392 12.5034 83.7844 12.8516 84.973 13.5253ZM64.3397 27.5331L72.307 23.0394L70.8615 39.9406L68.1066 41.105L64.3397 27.5331ZM59.5146 20.9465L53.0009 15.2446L55.2477 13.2644L65.6806 17.2257L59.5146 20.9465ZM31.311 6.02547C30.9523 7.86604 30.8414 9.74631 30.9812 11.6163C31.0039 11.8999 31.0322 12.1835 31.0622 12.4752C31.2089 13.9547 31.3466 15.3524 30.7543 16.332C30.162 17.3116 28.847 17.8537 27.4647 18.4168L27.0725 18.5789C23.2918 20.1467 20.7727 22.144 19.375 24.6931C18.5763 26.3105 18.0215 28.0373 17.7286 29.8172C17.5519 30.6494 17.385 31.4377 17.1614 32.1986C16.894 33.1134 15.8431 36.1284 13.5282 36.5221C11.8526 36.8049 10.2944 35.6373 8.49078 34.281C7.58175 33.5694 6.6205 32.9272 5.61516 32.3598C7.82333 26.4202 11.2504 21.0085 15.6759 16.473C20.1014 11.9376 25.4273 8.37873 31.311 6.02547ZM2.81976 47.9914C2.81928 43.6234 3.45471 39.2786 4.70605 35.0937C5.39153 35.5077 6.07701 36.0133 6.78599 36.5465C8.57748 37.8955 10.5804 39.4026 13.0064 39.4026C13.3405 39.404 13.6742 39.3769 14.0038 39.3216C16.6615 38.8703 18.8597 36.5059 19.8839 33.0016C20.1359 32.1362 20.323 31.2611 20.5021 30.4152C20.7424 28.9088 21.1981 27.4448 21.8552 26.0681C22.9329 24.1089 24.9942 22.52 28.1542 21.2066L28.5326 21.051C30.2001 20.372 32.0896 19.6014 33.1778 17.8099C34.266 16.0184 34.0602 13.9936 33.8827 12.2045C33.8568 11.9323 33.8293 11.6617 33.8082 11.3991C33.6418 9.20443 33.8735 6.99772 34.4921 4.88543C41.2822 2.761 48.478 2.27018 55.4937 3.45291C62.5094 4.63564 69.1466 7.45849 74.865 11.6916L68.7653 15.3718L55.4551 10.3093C55.2139 10.2177 54.9523 10.1937 54.6984 10.2398C54.4446 10.286 54.2081 10.4005 54.0145 10.571L49.9146 14.1848C49.763 14.3179 49.6416 14.4818 49.5584 14.6655C49.4752 14.8492 49.4322 15.0486 49.4322 15.2503C49.4322 15.452 49.4752 15.6514 49.5584 15.8351C49.6416 16.0188 49.763 16.1827 49.9146 16.3158L56.9639 22.4835L40.2417 32.5754L37.6245 31.3211C36.5801 30.8105 35.4135 30.6024 34.257 30.7204C33.1004 30.8384 31.9999 31.2777 31.0801 31.9887L30.115 32.7253C29.9487 32.8522 29.8125 33.0144 29.7162 33.2002C29.62 33.386 29.566 33.5909 29.5583 33.8C29.5505 34.0091 29.5892 34.2174 29.6714 34.4098C29.7537 34.6022 29.8775 34.774 30.034 34.913L37.3774 41.4072C38.3174 42.2386 39.4854 42.7686 40.7301 42.9287C41.9748 43.0888 43.2388 42.8715 44.3586 42.305L62.9006 32.9529L65.8014 43.4183C65.8554 43.6126 65.9502 43.7931 66.0795 43.9478C66.2088 44.1026 66.3695 44.228 66.5511 44.3157C66.7327 44.4034 66.9308 44.4514 67.1324 44.4565C67.334 44.4616 67.5343 44.4237 67.7201 44.3452L72.7526 42.2207C72.9903 42.1202 73.1961 41.9566 73.3478 41.7477C73.4994 41.5388 73.5912 41.2925 73.6131 41.0353L74.8196 26.9367L84.8539 21.8766C88.9715 27.6582 91.6532 34.3372 92.6769 41.361C88.9453 41.6083 85.2702 42.4022 81.7692 43.7173C80.5538 44.1961 79.3603 44.7641 78.204 45.3143C75.198 46.742 72.3442 48.0838 69.3762 47.9225C67.4484 47.6984 65.5673 47.1748 63.8008 46.3709C62.8382 45.9957 61.8441 45.6084 60.8199 45.2932C56.5765 43.9968 52.7748 44.6742 50.6503 47.1098C48.6635 49.3859 48.6295 52.6399 48.6076 54.7936L48.4861 66.0894C48.4359 71.0952 48.0923 76.5321 44.6422 77.6819C34.5139 81.0574 31.4641 84.8794 30.7916 89.7548C27.7746 88.5045 24.9024 86.9301 22.2255 85.0593C21.8339 84.3923 21.4777 83.705 21.1584 83.0004C21.0043 82.6573 20.7201 82.3895 20.3686 82.2557C20.017 82.122 19.6267 82.1334 19.2835 82.2874C19.1517 82.349 19.0306 82.431 18.9245 82.5305C13.881 78.2986 9.82549 73.0133 7.0432 67.0463C4.26091 61.0793 2.81932 54.5752 2.81976 47.9914ZM47.9918 93.1636C43.066 93.1638 38.1735 92.3547 33.51 90.7684C33.6972 87.6343 34.8664 83.9266 45.5392 80.3695C51.1964 78.4848 51.2758 70.742 51.322 66.1162L51.4435 54.8203C51.467 52.5224 51.587 50.346 52.7878 48.9718C54.3986 47.1244 57.5634 47.2589 59.9886 47.9995C60.9106 48.2839 61.8149 48.6356 62.771 49.0091C64.8123 49.9283 66.987 50.5161 69.2134 50.7504C72.922 50.9594 76.2254 49.3907 79.4227 47.8723C80.5886 47.3181 81.6914 46.7947 82.8144 46.3514C86.0869 45.1309 89.5211 44.3979 93.0067 44.1759C93.1115 45.4383 93.1655 46.7096 93.1688 47.9898C93.1557 59.9672 88.3917 71.4502 79.9221 79.9192C71.4525 88.3882 59.9692 93.1513 47.9918 93.1636Z" fill="white"/>
</svg>
