<svg width="30" height="30" viewBox="0 0 30 30" fill="none" xmlns="http://www.w3.org/2000/svg">
<path d="M15 0C6.71582 0 0 6.71582 0 15C0 23.2842 6.71582 30 15 30C23.2842 30 30 23.2842 30 15C29.9907 6.71973 23.2803 0.00927738 15 0ZM15 29C7.26807 29 1 22.7319 1 15C1 7.26807 7.26807 1 15 1C22.7319 1 29 7.26807 29 15C28.9912 22.7283 22.7283 28.9912 15 29Z" fill="white"/>
<path d="M22 9H8C7.72388 9 7.5 9.22388 7.5 9.5V20.5C7.5 20.7761 7.72388 21 8 21H22C22.2761 21 22.5 20.7761 22.5 20.5V9.5C22.5 9.22388 22.2761 9 22 9ZM20.6499 10L15 14.8416L9.3501 10H20.6499ZM8.5 20V10.5869L14.6746 15.8794C14.8616 16.0396 15.1375 16.0396 15.3245 15.8794L21.5 10.5869V20H8.5Z" fill="white"/>
</svg>
