<svg width="32" height="25" viewBox="0 0 32 25" fill="none" xmlns="http://www.w3.org/2000/svg">
<path d="M31.9999 20.265C31.9988 19.9136 31.8883 19.5713 31.6837 19.2848C31.4791 18.9984 31.1903 18.782 30.857 18.6653V9.01935L31.3737 8.78948C31.5628 8.69144 31.7212 8.54367 31.8316 8.36229C31.942 8.1809 32.0002 7.97287 31.9999 7.76086C31.9988 7.54319 31.9366 7.33014 31.8204 7.14567C31.7042 6.96121 31.5385 6.81265 31.3419 6.7167L16.5435 0.135511C16.3818 0.0492566 16.2017 0.00282799 16.0183 0.000125177C15.8349 -0.00257764 15.6535 0.0385243 15.4893 0.119979L0.657921 6.7167C0.647058 6.72123 0.636441 6.72632 0.626115 6.73196C0.434593 6.83162 0.274661 6.98219 0.164138 7.1669C0.053614 7.3516 -0.00316157 7.56319 0.00013588 7.77808C0.00343333 7.99298 0.0666745 8.20275 0.182814 8.38401C0.298953 8.56528 0.46343 8.71093 0.657921 8.80474L4.57141 10.5452V21.0231C4.57148 21.162 4.62269 21.2961 4.71538 21.4001C4.84652 21.5471 8.01783 25 15.9999 25C23.982 25 27.1533 21.5471 27.2845 21.4001C27.3772 21.2961 27.4284 21.162 27.4285 21.0231V10.5445L29.7142 9.52775V18.6653C29.3967 18.7752 29.1191 18.976 28.9162 19.2426C28.7134 19.5091 28.5944 19.8293 28.5743 20.1629C28.5542 20.4966 28.6339 20.8286 28.8033 21.1173C28.9727 21.406 29.2243 21.6384 29.5263 21.7851L28.6087 24.1756C28.5819 24.2453 28.5693 24.3196 28.5714 24.3942C28.5735 24.4688 28.5904 24.5422 28.6211 24.6103C28.6518 24.6784 28.6956 24.7399 28.7502 24.7911C28.8047 24.8424 28.8689 24.8824 28.9391 24.909C29.0092 24.9356 29.0839 24.9482 29.1589 24.9461C29.234 24.944 29.3078 24.9272 29.3763 24.8967C29.4448 24.8662 29.5066 24.8226 29.5582 24.7684C29.6097 24.7141 29.65 24.6503 29.6768 24.5806L30.2856 22.9944L30.8944 24.5806C30.9211 24.6503 30.9614 24.7141 31.013 24.7684C31.0645 24.8226 31.1263 24.8662 31.1948 24.8967C31.2633 24.9272 31.3372 24.944 31.4122 24.9461C31.4873 24.9482 31.562 24.9356 31.6321 24.909C31.7023 24.8824 31.7664 24.8424 31.821 24.7911C31.8755 24.7399 31.9194 24.6784 31.9501 24.6103C31.9808 24.5422 31.9976 24.4688 31.9998 24.3942C32.0019 24.3196 31.9892 24.2453 31.9625 24.1756L31.0449 21.7852C31.3306 21.6453 31.5714 21.4289 31.7402 21.1603C31.9089 20.8917 31.9988 20.5816 31.9999 20.265ZM1.14899 7.74283L15.9558 1.15693L15.9681 1.15579C15.9933 1.15833 16.0187 1.15871 16.044 1.15693L30.8754 7.7678L16.044 14.3645C16.0357 14.3676 15.9927 14.3623 15.9698 14.3626C15.9651 14.3622 15.9603 14.3629 15.9559 14.3645L1.14286 7.76086C1.14239 7.75759 1.1427 7.75425 1.14377 7.75112C1.14483 7.74799 1.14662 7.74515 1.14899 7.74283ZM26.2856 20.7859C25.6076 21.4079 22.5166 23.8637 15.9999 23.8637C9.47987 23.8637 6.38892 21.4051 5.71426 20.7862V11.0534L15.4564 15.3859C15.6267 15.4747 15.816 15.5212 16.0083 15.5213C16.183 15.5227 16.3555 15.4815 16.5105 15.4015L26.2856 11.053V20.7859ZM30.2794 19.6981L30.2856 19.6993L30.2918 19.6981C30.4427 19.6994 30.587 19.7601 30.693 19.867C30.799 19.9738 30.8581 20.1181 30.8574 20.2682C30.8567 20.4183 30.7962 20.5619 30.6892 20.6678C30.5821 20.7736 30.4373 20.833 30.2864 20.8329L30.2856 20.8328L30.2848 20.8329C30.1339 20.833 29.989 20.7736 29.882 20.6678C29.775 20.5619 29.7145 20.4183 29.7138 20.2682C29.713 20.1181 29.7721 19.9738 29.8782 19.867C29.9842 19.7601 30.1284 19.6994 30.2794 19.6981Z" fill="white"/>
</svg>
