<svg width="118" height="93" viewBox="0 0 118 93" fill="none" xmlns="http://www.w3.org/2000/svg">
<path d="M117.999 75.3856C117.995 74.0787 117.588 72.8051 116.834 71.7396C116.079 70.6741 115.014 69.869 113.785 69.4347V33.552L115.691 32.6969C116.388 32.3321 116.972 31.7824 117.379 31.1077C117.786 30.433 118.001 29.6591 117.999 28.8704C117.995 28.0607 117.766 27.2681 117.338 26.5819C116.909 25.8957 116.298 25.3431 115.573 24.9861L61.004 0.504102C60.4079 0.183235 59.7438 0.0105201 59.0674 0.000465659C58.3911 -0.00958881 57.7221 0.143311 57.1169 0.446321L2.42608 24.9861C2.38602 25.003 2.34688 25.0219 2.3088 25.0429C1.60256 25.4136 1.01281 25.9737 0.605258 26.6609C0.197702 27.348 -0.0116583 28.1351 0.000501059 28.9345C0.0126604 29.7339 0.245862 30.5142 0.674126 31.1885C1.10239 31.8628 1.7089 32.4047 2.42608 32.7536L16.8571 39.228V78.2059C16.8573 78.7228 17.0462 79.2216 17.388 79.6084C17.8715 80.1553 29.5657 93 58.9998 93C88.4338 93 100.128 80.1553 100.611 79.6084C100.953 79.2216 101.142 78.7228 101.142 78.2059V39.2257L109.571 35.4432V69.4347C108.4 69.8436 107.376 70.5908 106.629 71.5823C105.881 72.5737 105.442 73.7651 105.368 75.0062C105.294 76.2472 105.588 77.4825 106.212 78.5564C106.837 79.6303 107.765 80.4947 108.878 81.0407L105.495 89.9331C105.396 90.1925 105.349 90.4688 105.357 90.7463C105.365 91.0238 105.427 91.2971 105.54 91.5504C105.653 91.8038 105.815 92.0323 106.016 92.223C106.217 92.4136 106.454 92.5627 106.713 92.6616C106.971 92.7605 107.247 92.8074 107.524 92.7996C107.8 92.7917 108.073 92.7293 108.325 92.6158C108.578 92.5023 108.806 92.3401 108.996 92.1383C109.186 91.9365 109.334 91.6992 109.433 91.4398L111.678 85.5391L113.923 91.4398C114.022 91.6992 114.17 91.9365 114.36 92.1383C114.55 92.3401 114.778 92.5023 115.031 92.6158C115.284 92.7293 115.556 92.7917 115.833 92.7996C116.109 92.8074 116.385 92.7605 116.643 92.6616C116.902 92.5627 117.139 92.4136 117.34 92.223C117.541 92.0323 117.703 91.8038 117.816 91.5504C117.929 91.2971 117.991 91.0238 117.999 90.7463C118.007 90.4688 117.96 90.1925 117.862 89.9331L114.478 81.0408C115.532 80.5206 116.42 79.7155 117.042 78.7164C117.664 77.7172 117.996 76.5636 117.999 75.3856ZM4.23691 28.8033L58.8372 4.30377L58.8824 4.29954C58.9754 4.30897 59.0691 4.31038 59.1623 4.30377L113.853 28.8962L59.1623 53.436C59.1315 53.4474 58.973 53.4278 58.8887 53.4288C58.8712 53.4275 58.8537 53.43 58.8372 53.436L4.21428 28.8704C4.21255 28.8582 4.2137 28.8458 4.21763 28.8342C4.22156 28.8225 4.22817 28.8119 4.23691 28.8033ZM96.9282 77.3236C94.428 79.6373 83.0301 88.7731 58.9998 88.7731C34.957 88.7731 23.5592 79.6269 21.0713 77.3246V41.1186L56.9955 57.2357C57.6234 57.5659 58.3216 57.7387 59.0306 57.7393C59.6749 57.7444 60.3107 57.5914 60.8826 57.2935L96.9282 41.1172V77.3236ZM111.655 73.2768L111.678 73.2814L111.701 73.2768C112.258 73.2818 112.79 73.5077 113.18 73.9052C113.571 74.3027 113.789 74.8393 113.787 75.3976C113.784 75.9559 113.561 76.4904 113.166 76.8841C112.772 77.2779 112.238 77.4987 111.681 77.4984L111.678 77.498L111.675 77.4984C111.119 77.4987 110.585 77.2779 110.19 76.8841C109.795 76.4904 109.572 75.9559 109.569 75.3976C109.567 74.8393 109.785 74.3027 110.176 73.9052C110.567 73.5077 111.099 73.2818 111.655 73.2768Z" fill="white"/>
</svg>
