<svg width="30" height="30" viewBox="0 0 30 30" fill="none" xmlns="http://www.w3.org/2000/svg">
<path d="M25.3637 4.26305C19.4785 -1.42102 10.1483 -1.42102 4.26308 4.26305C-1.56372 10.296 -1.3966 19.9101 4.63634 25.7369C10.5215 31.421 19.8518 31.421 25.737 25.7369C31.5638 19.7041 31.3967 10.0899 25.3637 4.26305ZM25.0232 25.0232L25.0182 25.0181C19.4803 30.551 10.5057 30.5469 4.97282 25.009C-0.560035 19.4711 -0.555941 10.4966 4.98196 4.96371C10.5199 -0.569143 19.4944 -0.565049 25.0273 4.97279C27.6849 7.63282 29.1767 11.2398 29.1743 15C29.1745 18.7593 27.6813 22.3648 25.0232 25.0232Z" fill="white"/>
<path d="M23.5299 19.3233L20.685 16.4884C20.0393 15.8412 18.9912 15.84 18.344 16.4857C18.343 16.4866 18.3421 16.4875 18.3412 16.4884L16.7112 18.1185C16.5878 18.2421 16.3935 18.2592 16.2505 18.159C15.3584 17.5355 14.5232 16.8341 13.7549 16.0632C13.0667 15.3766 12.4337 14.637 11.8616 13.851C11.7579 13.7098 11.773 13.5141 11.897 13.3904L13.5675 11.7198C14.2125 11.0736 14.2125 10.0273 13.5675 9.3811L10.7226 6.53616C10.067 5.90941 9.0344 5.90941 8.37882 6.53616L7.47777 7.43721C6.11697 8.78271 5.63117 10.7806 6.22232 12.6007C6.66345 13.9323 7.28699 15.1963 8.07509 16.3568C8.78459 17.4207 9.59856 18.411 10.505 19.3132C11.4904 20.3056 12.5819 21.1866 13.7599 21.9404C15.0549 22.7855 16.4769 23.4178 17.9717 23.8134C18.356 23.9082 18.7503 23.9558 19.1461 23.9552C20.5029 23.9469 21.8009 23.4007 22.7555 22.4365L23.53 21.662C24.1749 21.0158 24.1749 19.9695 23.5299 19.3233ZM22.8131 20.9716C22.8124 20.9722 22.8118 20.9729 22.811 20.9736L22.8161 20.9584L22.0416 21.7329C21.0464 22.7406 19.5971 23.1553 18.2196 22.8264C16.8317 22.4549 15.5124 21.8636 14.3116 21.0749C13.196 20.3619 12.1621 19.5284 11.2287 18.5893C10.3699 17.7368 9.59832 16.8007 8.92537 15.795C8.18929 14.7128 7.60668 13.5339 7.19409 12.2919C6.72111 10.8328 7.11305 9.23173 8.20655 8.15609L9.1076 7.25503C9.35812 7.00339 9.7652 7.0025 10.0168 7.25302C10.0174 7.25367 10.0181 7.25432 10.0188 7.25503L12.8637 10.1C13.1154 10.3505 13.1163 10.7576 12.8658 11.0092C12.8651 11.0098 12.8645 11.0105 12.8637 11.0112L11.1932 12.6817C10.7139 13.1558 10.6536 13.9092 11.0515 14.4535C11.6557 15.2827 12.3243 16.063 13.0511 16.7872C13.8614 17.601 14.7423 18.3413 15.6834 18.9994C16.2272 19.3787 16.9645 19.3148 17.4349 18.8475L19.0497 17.2074C19.3003 16.9557 19.7073 16.9548 19.9589 17.2054C19.9596 17.206 19.9602 17.2067 19.9609 17.2074L22.811 20.0625C23.0627 20.3129 23.0636 20.7199 22.8131 20.9716Z" fill="white"/>
</svg>
