<svg width="26" height="26" viewBox="0 0 26 26" fill="none" xmlns="http://www.w3.org/2000/svg">
<path fill-rule="evenodd" clip-rule="evenodd" d="M10.3869 15.4986L20.7054 25.5669C21.2731 26.1206 22.1706 26.1465 22.7692 25.6265L22.7706 25.6251C23.3693 25.1052 23.4687 24.2127 23.0001 23.5734C23.0001 23.5734 14.4322 11.8919 14.4308 11.8905L11.1831 7.46224C11.3214 7.09861 11.3362 6.69104 11.2095 6.30613L9.85859 2.1975C9.60183 1.41611 8.97078 0.815157 8.17783 0.596332C7.38488 0.37797 6.53505 0.570888 5.9142 1.11032L0.845129 5.5141C0.223816 6.05353 -0.0856832 6.86776 0.0197968 7.68338C0.125277 8.49946 0.632306 9.20821 1.36974 9.57184L5.24939 11.4839C5.61626 11.6648 6.02615 11.706 6.40828 11.6167L10.286 15.4005C10.2944 15.414 10.3036 15.4269 10.3147 15.4394C10.336 15.4639 10.3605 15.4838 10.3869 15.4986ZM14.1629 12.4638L22.5523 23.9018C22.8502 24.3085 22.7868 24.8757 22.4065 25.206L22.4052 25.2074C22.0244 25.5377 21.454 25.5215 21.0931 25.1695L10.9407 15.2631L14.1629 12.4638ZM10.7006 8.15249L10.8838 7.99334L13.0355 10.9264L9.57591 13.9317L6.97223 11.3914L7.14894 11.2378L10.7006 8.15249ZM13.3649 11.3756L13.8335 12.0145L10.5419 14.8741L9.9747 14.3208L13.3649 11.3756ZM6.78485 10.8186C6.4277 11.1291 5.91927 11.1948 5.49457 10.9856L1.6154 9.07359C1.04451 8.79231 0.652216 8.24363 0.57033 7.61213C0.488907 6.9811 0.728541 6.35054 1.20922 5.93325L6.27828 1.52946C6.75896 1.1117 7.41681 0.962735 8.03026 1.1316C8.64417 1.30092 9.13225 1.76586 9.33119 2.37099L10.6821 6.47915C10.8301 6.92883 10.6936 7.42292 10.3365 7.73334L9.91687 8.0979L9.03185 5.77503C8.97726 5.63161 8.81719 5.5599 8.67378 5.61449C8.53082 5.66862 8.45866 5.82915 8.51325 5.97257L9.47042 8.48558L8.77001 9.09394L6.65855 6.66328C6.55816 6.54762 6.38236 6.53513 6.26671 6.63552C6.15105 6.73591 6.13901 6.91171 6.2394 7.02737L8.35086 9.45803L7.6509 10.0664L5.29609 8.76733C5.16193 8.6933 4.9931 8.74188 4.91908 8.87604C4.84506 9.01021 4.89362 9.17907 5.02779 9.25309L7.20445 10.4541L6.78485 10.8186ZM21.8176 1.76216C21.07 1.76216 20.476 1.09135 20.476 0.277578C20.476 0.124447 20.3515 0 20.1984 0C20.0448 0 19.9208 0.124447 19.9208 0.277578C19.9208 1.09135 19.3268 1.76216 18.5792 1.76216C18.4261 1.76216 18.3016 1.88661 18.3016 2.03974C18.3016 2.19333 18.4261 2.31732 18.5792 2.31732C19.3268 2.31732 19.9208 2.9886 19.9208 3.80237C19.9208 3.9555 20.0448 4.07995 20.1984 4.07995C20.3515 4.07995 20.476 3.9555 20.476 3.80237C20.476 2.9886 21.07 2.31732 21.8176 2.31732C21.9707 2.31732 22.0952 2.19333 22.0952 2.03974C22.0952 1.88661 21.9707 1.76216 21.8176 1.76216ZM20.1984 2.73924C20.0342 2.45102 19.8051 2.21045 19.534 2.03974C19.8051 1.86949 20.0342 1.62892 20.1984 1.3407C20.3626 1.62892 20.5912 1.86949 20.8627 2.03974C20.5912 2.21045 20.3626 2.45102 20.1984 2.73924ZM20.3053 8.67989V8.68081C20.3053 8.83441 20.4292 8.95839 20.5828 8.95839C21.7348 8.95839 22.6568 9.98636 22.6568 11.2406C22.6568 11.3941 22.7808 11.5181 22.9344 11.5181H22.9353C23.0885 11.5181 23.2129 11.3941 23.2129 11.2406C23.2129 9.98636 24.1345 8.95839 25.2869 8.95839C25.44 8.95839 25.5645 8.83441 25.5645 8.68081V8.67989C25.5645 8.52676 25.44 8.40231 25.2869 8.40231C24.1345 8.40231 23.2129 7.37434 23.2129 6.12015C23.2129 5.96702 23.0885 5.84257 22.9353 5.84257H22.9344C22.7808 5.84257 22.6568 5.96702 22.6568 6.12015C22.6568 7.37434 21.7348 8.40231 20.5828 8.40231C20.4292 8.40231 20.3053 8.52676 20.3053 8.67989ZM24.153 8.68035C23.6269 8.95238 23.1967 9.40807 22.9348 9.97109C22.673 9.40807 22.2428 8.95238 21.7163 8.68035C22.2428 8.40832 22.673 7.9531 22.9348 7.38961C23.1967 7.9531 23.6269 8.40832 24.153 8.68035ZM1.18702 19.6059V19.6068C1.18702 19.7599 1.31146 19.8844 1.46459 19.8844C2.617 19.8844 3.53903 20.9123 3.53903 22.1665C3.53903 22.3197 3.66301 22.4441 3.8166 22.4441H3.81708C3.97067 22.4441 4.09465 22.3197 4.09465 22.1665C4.09465 20.9123 5.01668 19.8844 6.16909 19.8844C6.32222 19.8844 6.44669 19.7599 6.44669 19.6068V19.6059C6.44669 19.4523 6.32222 19.3283 6.16909 19.3283C5.01668 19.3283 4.09465 18.3003 4.09465 17.0461C4.09465 16.893 3.97067 16.7685 3.81708 16.7685H3.8166C3.66301 16.7685 3.53903 16.893 3.53903 17.0461C3.53903 18.3003 2.617 19.3283 1.46459 19.3283C1.31146 19.3283 1.18702 19.4523 1.18702 19.6059ZM5.03519 19.6063C4.50917 19.8783 4.07847 20.3336 3.81708 20.8971C3.55523 20.3336 3.1245 19.8783 2.59849 19.6063C3.1245 19.3343 3.55523 18.8791 3.81708 18.3156C4.07847 18.8791 4.50917 19.3343 5.03519 19.6063Z" fill="white"/>
</svg>
