<svg width="54" height="55" viewBox="0 0 54 55" fill="none" xmlns="http://www.w3.org/2000/svg">
<path fill-rule="evenodd" clip-rule="evenodd" d="M21.941 32.7372L43.7365 54.004C44.9355 55.1737 46.8313 55.2284 48.0958 54.13L48.0987 54.1271C49.3632 53.0287 49.5733 51.1437 48.5834 49.7932C48.5834 49.7932 30.4857 25.1189 30.4827 25.116L23.6228 15.7622C23.9149 14.9942 23.9462 14.1332 23.6785 13.3202L20.8251 4.6417C20.2827 2.99121 18.9498 1.72183 17.2748 1.25961C15.5999 0.798374 13.8049 1.20587 12.4935 2.34528L1.78625 11.6472C0.473872 12.7867 -0.179872 14.5065 0.04293 16.2293C0.265732 17.9531 1.33671 19.4502 2.89437 20.2183L11.0892 24.257C11.8641 24.6391 12.7299 24.7261 13.5371 24.5375L21.728 32.53C21.7455 32.5583 21.7651 32.5857 21.7885 32.6121C21.8335 32.6639 21.8853 32.7059 21.941 32.7372ZM29.9169 26.3267L47.6375 50.487C48.2668 51.346 48.1329 52.544 47.3296 53.2418L47.3267 53.2447C46.5225 53.9424 45.3176 53.9082 44.5554 53.1646L23.1107 32.2398L29.9169 26.3267ZM22.6035 17.2202L22.9905 16.8841L27.5354 23.0795L20.228 29.4274L14.7283 24.0616L15.1016 23.7372L22.6035 17.2202ZM28.2312 24.0284L29.2211 25.3779L22.2684 31.418L21.0703 30.2492L28.2312 24.0284ZM14.3325 22.8518C13.5781 23.5075 12.5042 23.6463 11.6071 23.2046L3.41327 19.1658C2.20741 18.5717 1.37877 17.4127 1.2058 16.0788C1.03381 14.7459 1.53999 13.414 2.5553 12.5326L13.2625 3.23062C14.2778 2.34821 15.6674 2.03355 16.9631 2.39023C18.2599 2.74788 19.2908 3.72997 19.711 5.00815L22.5645 13.6857C22.8772 14.6355 22.5889 15.6792 21.8345 16.3349L20.9482 17.1049L19.0788 12.1984C18.9635 11.8955 18.6254 11.744 18.3224 11.8593C18.0205 11.9736 17.868 12.3127 17.9833 12.6156L20.0051 17.9238L18.5257 19.2088L14.0657 14.0746C13.8537 13.8303 13.4824 13.8039 13.2381 14.016C12.9938 14.228 12.9683 14.5994 13.1804 14.8437L17.6403 19.9779L16.1618 21.2629L11.1879 18.5189C10.9045 18.3626 10.5479 18.4652 10.3915 18.7486C10.2352 19.0319 10.3377 19.3886 10.6211 19.545L15.2188 22.0818L14.3325 22.8518ZM46.0857 3.72215C44.5065 3.72215 43.2518 2.30521 43.2518 0.586318C43.2518 0.262865 42.9889 0 42.6655 0C42.341 0 42.0792 0.262865 42.0792 0.586318C42.0792 2.30521 40.8244 3.72215 39.2453 3.72215C38.9218 3.72215 38.659 3.98502 38.659 4.30847C38.659 4.6329 38.9218 4.89479 39.2453 4.89479C40.8244 4.89479 42.0792 6.31271 42.0792 8.03161C42.0792 8.35506 42.341 8.61792 42.6655 8.61792C42.9889 8.61792 43.2518 8.35506 43.2518 8.03161C43.2518 6.31271 44.5065 4.89479 46.0857 4.89479C46.4091 4.89479 46.672 4.6329 46.672 4.30847C46.672 3.98502 46.4091 3.72215 46.0857 3.72215ZM42.6655 5.786C42.3186 5.1772 41.8348 4.66906 41.2622 4.30847C41.8348 3.94886 42.3186 3.44072 42.6655 2.83192C43.0124 3.44072 43.4951 3.94886 44.0687 4.30847C43.4951 4.66906 43.0124 5.1772 42.6655 5.786ZM42.8912 18.3342V18.3362C42.8912 18.6606 43.1531 18.9225 43.4775 18.9225C45.9107 18.9225 47.8583 21.0938 47.8583 23.743C47.8583 24.0675 48.1202 24.3293 48.4446 24.3293H48.4466C48.77 24.3293 49.0329 24.0675 49.0329 23.743C49.0329 21.0938 50.9795 18.9225 53.4137 18.9225C53.7372 18.9225 54 18.6606 54 18.3362V18.3342C54 18.0108 53.7372 17.7479 53.4137 17.7479C50.9795 17.7479 49.0329 15.5766 49.0329 12.9274C49.0329 12.6039 48.77 12.3411 48.4466 12.3411H48.4446C48.1202 12.3411 47.8583 12.6039 47.8583 12.9274C47.8583 15.5766 45.9107 17.7479 43.4775 17.7479C43.1531 17.7479 42.8912 18.0108 42.8912 18.3342ZM51.0185 18.3352C49.9075 18.9098 48.9987 19.8723 48.4456 21.0616C47.8925 19.8723 46.9837 18.9098 45.8717 18.3352C46.9837 17.7606 47.8925 16.799 48.4456 15.6088C48.9987 16.799 49.9075 17.7606 51.0185 18.3352ZM2.50842 41.4127V41.4147C2.50842 41.7382 2.77126 42.001 3.09471 42.001C5.52892 42.001 7.47648 44.1724 7.47648 46.8216C7.47648 47.145 7.73835 47.4079 8.06278 47.4079H8.0638C8.38823 47.4079 8.65009 47.145 8.65009 46.8216C8.65009 44.1724 10.5977 42.001 13.0319 42.001C13.3553 42.001 13.6182 41.7382 13.6182 41.4147V41.4127C13.6182 41.0883 13.3553 40.8264 13.0319 40.8264C10.5977 40.8264 8.65009 38.6551 8.65009 36.0059C8.65009 35.6824 8.38823 35.4196 8.0638 35.4196H8.06278C7.73835 35.4196 7.47648 35.6824 7.47648 36.0059C7.47648 38.6551 5.52892 40.8264 3.09471 40.8264C2.77126 40.8264 2.50842 41.0883 2.50842 41.4127ZM10.6368 41.4137C9.52568 41.9883 8.61591 42.9499 8.0638 44.1401C7.5107 42.9499 6.60089 41.9883 5.48982 41.4137C6.60089 40.8391 7.5107 39.8776 8.0638 38.6873C8.61591 39.8776 9.52568 40.8391 10.6368 41.4137Z" fill="white"/>
</svg>
