<svg width="56" height="56" viewBox="0 0 56 56" fill="none" xmlns="http://www.w3.org/2000/svg">
<path d="M55.0457 23.7599H0.9543C0.742126 23.7599 0.538642 23.6756 0.388612 23.5255C0.238583 23.3755 0.154297 23.172 0.154297 22.9599V17.1246C0.154295 16.9869 0.189864 16.8515 0.257559 16.7315C0.325254 16.6115 0.422783 16.5111 0.540698 16.4398L27.5808 0.114971C27.7055 0.0397522 27.8484 0 27.994 0C28.1396 0 28.2825 0.0397522 28.4072 0.114971L55.4585 16.4398C55.5764 16.5111 55.674 16.6115 55.7417 16.7315C55.8094 16.8515 55.8449 16.9869 55.8449 17.1246V22.9599C55.8449 23.1719 55.7607 23.3753 55.6109 23.5253C55.461 23.6753 55.2577 23.7597 55.0457 23.7599ZM1.7551 22.1599H54.2457V17.5758L27.9952 1.73418L1.7551 17.5742V22.1599Z" fill="white"/>
<path d="M27.9997 17.8501C27.0533 17.8501 26.1282 17.5695 25.3414 17.0437C24.5545 16.518 23.9412 15.7707 23.5791 14.8964C23.2169 14.0221 23.1222 13.06 23.3068 12.1318C23.4914 11.2037 23.9471 10.3511 24.6163 9.68192C25.2855 9.01275 26.138 8.55704 27.0662 8.37241C27.9944 8.18779 28.9564 8.28254 29.8307 8.6447C30.705 9.00685 31.4523 9.62013 31.9781 10.407C32.5039 11.1938 32.7845 12.1189 32.7845 13.0653C32.783 14.3339 32.2784 15.55 31.3814 16.447C30.4844 17.344 29.2682 17.8486 27.9997 17.8501ZM27.9997 9.87968C27.3698 9.87968 26.754 10.0665 26.2303 10.4164C25.7065 10.7664 25.2983 11.2638 25.0573 11.8457C24.8162 12.4277 24.7532 13.068 24.876 13.6858C24.9989 14.3036 25.3023 14.8711 25.7477 15.3165C26.1931 15.7619 26.7605 16.0652 27.3783 16.1881C27.9961 16.311 28.6365 16.2479 29.2184 16.0069C29.8004 15.7658 30.2978 15.3576 30.6477 14.8339C30.9977 14.3101 31.1845 13.6944 31.1845 13.0645C31.1834 12.2202 30.8475 11.4107 30.2505 10.8137C29.6535 10.2166 28.844 9.88074 27.9997 9.87968Z" fill="white"/>
<path d="M50.3776 28.8134H41.8647C41.4065 28.8127 40.9672 28.6304 40.6433 28.3063C40.3193 27.9822 40.1371 27.5428 40.1367 27.0846V22.9598C40.1367 22.7476 40.221 22.5441 40.371 22.3941C40.5211 22.244 40.7245 22.1598 40.9367 22.1598H51.3056C51.5177 22.1598 51.7212 22.244 51.8712 22.3941C52.0213 22.5441 52.1056 22.7476 52.1056 22.9598V27.087C52.1045 27.5448 51.9221 27.9835 51.5982 28.3071C51.2743 28.6307 50.8354 28.8127 50.3776 28.8134ZM41.7375 23.7574V27.0846C41.7375 27.1186 41.751 27.1512 41.775 27.1754C41.7989 27.1995 41.8315 27.2132 41.8655 27.2134H50.3776C50.4116 27.2132 50.4441 27.1995 50.4681 27.1754C50.4921 27.1512 50.5056 27.1186 50.5056 27.0846V23.7598L41.7375 23.7574Z" fill="white"/>
<path d="M49.6518 44.9725H42.591C42.3788 44.9725 42.1754 44.8882 42.0253 44.7382C41.8753 44.5881 41.791 44.3846 41.791 44.1725V28.0124C41.791 27.8002 41.8753 27.5967 42.0253 27.4467C42.1754 27.2967 42.3788 27.2124 42.591 27.2124H49.6518C49.864 27.2124 50.0675 27.2967 50.2175 27.4467C50.3676 27.5967 50.4519 27.8002 50.4519 28.0124V44.1725C50.4519 44.3846 50.3676 44.5881 50.2175 44.7382C50.0675 44.8882 49.864 44.9725 49.6518 44.9725ZM43.391 43.3725H48.8518V28.8124H43.391V43.3725Z" fill="white"/>
<path d="M51.3056 50.0287H40.9367C40.7245 50.0287 40.5211 49.9444 40.371 49.7944C40.221 49.6443 40.1367 49.4408 40.1367 49.2287V45.1015C40.1371 44.6432 40.3193 44.2039 40.6433 43.8798C40.9672 43.5557 41.4065 43.3733 41.8647 43.3727H50.3776C50.8358 43.3733 51.2751 43.5557 51.599 43.8798C51.923 44.2039 52.1051 44.6432 52.1056 45.1015V49.2287C52.1056 49.4408 52.0213 49.6443 51.8712 49.7944C51.7212 49.9444 51.5177 50.0287 51.3056 50.0287ZM41.7367 48.4287H50.5056V45.1015C50.5056 45.0674 50.4921 45.0348 50.4681 45.0107C50.4441 44.9865 50.4116 44.9729 50.3776 44.9727H41.8647C41.8307 44.9729 41.7981 44.9865 41.7742 45.0107C41.7502 45.0348 41.7367 45.0674 41.7367 45.1015V48.4287Z" fill="white"/>
<path d="M32.2557 28.8133H23.7436C23.2854 28.8127 22.8461 28.6303 22.5222 28.3062C22.1982 27.9821 22.016 27.5427 22.0156 27.0845V22.9597C22.0156 22.7475 22.0999 22.544 22.2499 22.394C22.4 22.244 22.6035 22.1597 22.8156 22.1597H33.1837C33.3958 22.1597 33.5993 22.244 33.7494 22.394C33.8994 22.544 33.9837 22.7475 33.9837 22.9597V27.0869C33.9826 27.5447 33.8002 27.9835 33.4763 28.307C33.1524 28.6306 32.7135 28.8127 32.2557 28.8133ZM23.6156 23.7597V27.0869C23.6156 27.1209 23.6291 27.1535 23.6531 27.1777C23.6771 27.2018 23.7096 27.2155 23.7436 27.2157H32.2557C32.2897 27.2155 32.3222 27.2018 32.3462 27.1777C32.3702 27.1535 32.3837 27.1209 32.3837 27.0869V23.7597H23.6156Z" fill="white"/>
<path d="M31.5197 44.9725H24.4797C24.2675 44.9725 24.064 44.8882 23.914 44.7382C23.764 44.5881 23.6797 44.3846 23.6797 44.1725V28.0124C23.6797 27.8002 23.764 27.5967 23.914 27.4467C24.064 27.2967 24.2675 27.2124 24.4797 27.2124H31.5197C31.7319 27.2124 31.9354 27.2967 32.0854 27.4467C32.2354 27.5967 32.3197 27.8002 32.3197 28.0124V44.1725C32.3197 44.3846 32.2354 44.5881 32.0854 44.7382C31.9354 44.8882 31.7319 44.9725 31.5197 44.9725ZM25.2797 43.3725H30.7197V28.8124H25.2797V43.3725Z" fill="white"/>
<path d="M33.1837 50.0286H22.8156C22.6035 50.0286 22.4 49.9443 22.2499 49.7943C22.0999 49.6442 22.0156 49.4408 22.0156 49.2286V45.1014C22.016 44.6431 22.1982 44.2038 22.5222 43.8797C22.8461 43.5556 23.2854 43.3732 23.7436 43.3726H32.2557C32.7139 43.3732 33.1532 43.5556 33.4771 43.8797C33.8011 44.2038 33.9832 44.6431 33.9837 45.1014V49.2286C33.9837 49.4408 33.8994 49.6442 33.7494 49.7943C33.5993 49.9443 33.3958 50.0286 33.1837 50.0286ZM23.6148 48.4286H32.3837V45.1014C32.3837 45.0673 32.3702 45.0347 32.3462 45.0106C32.3222 44.9864 32.2897 44.9728 32.2557 44.9726H23.7436C23.7096 44.9728 23.6771 44.9864 23.6531 45.0106C23.6291 45.0347 23.6156 45.0673 23.6156 45.1014L23.6148 48.4286Z" fill="white"/>
<path d="M14.9362 28.8133H6.42332C5.96508 28.8127 5.5258 28.6303 5.20185 28.3062C4.8779 27.9821 4.69574 27.5427 4.69531 27.0845V22.9597C4.69531 22.7475 4.7796 22.544 4.92963 22.394C5.07966 22.244 5.28314 22.1597 5.49532 22.1597H15.8642C16.0763 22.1597 16.2798 22.244 16.4298 22.394C16.5799 22.544 16.6642 22.7475 16.6642 22.9597V27.0869C16.6631 27.5447 16.4807 27.9835 16.1568 28.307C15.8329 28.6306 15.394 28.8127 14.9362 28.8133ZM6.29532 23.7597V27.0869C6.29532 27.1209 6.30878 27.1535 6.33276 27.1777C6.35674 27.2018 6.3893 27.2155 6.42332 27.2157H14.9362C14.9702 27.2155 15.0027 27.2018 15.0267 27.1777C15.0507 27.1535 15.0642 27.1209 15.0642 27.0869V23.7597H6.29532Z" fill="white"/>
<path d="M14.2403 44.9726H7.12032C6.90814 44.9726 6.70466 44.8883 6.55463 44.7382C6.4046 44.5882 6.32031 44.3847 6.32031 44.1726V28.0125C6.32031 27.8003 6.4046 27.5968 6.55463 27.4468C6.70466 27.2968 6.90814 27.2125 7.12032 27.2125H14.2403C14.4525 27.2125 14.656 27.2968 14.806 27.4468C14.9561 27.5968 15.0403 27.8003 15.0403 28.0125V44.1726C15.0403 44.3847 14.9561 44.5882 14.806 44.7382C14.656 44.8883 14.4525 44.9726 14.2403 44.9726ZM7.92032 43.3726H13.4403V28.8125H7.92032V43.3726Z" fill="white"/>
<path d="M15.8642 50.0286H5.49532C5.28314 50.0286 5.07966 49.9443 4.92963 49.7943C4.7796 49.6442 4.69531 49.4408 4.69531 49.2286V45.1014C4.69574 44.6431 4.8779 44.2038 5.20185 43.8797C5.5258 43.5556 5.96508 43.3732 6.42332 43.3726H14.9362C15.3944 43.3732 15.8337 43.5556 16.1576 43.8797C16.4816 44.2038 16.6637 44.6431 16.6642 45.1014V49.2286C16.6642 49.4408 16.5799 49.6442 16.4298 49.7943C16.2798 49.9443 16.0763 50.0286 15.8642 50.0286ZM6.29532 48.4286H15.0642V45.1014C15.0642 45.0673 15.0507 45.0347 15.0267 45.0106C15.0027 44.9864 14.9702 44.9728 14.9362 44.9726H6.42332C6.3893 44.9728 6.35674 44.9864 6.33276 45.0106C6.30878 45.0347 6.29532 45.0673 6.29532 45.1014V48.4286Z" fill="white"/>
<path d="M55.2002 56.0001H0.800003C0.587829 56.0001 0.384345 55.9158 0.234315 55.7658C0.0842858 55.6158 0 55.4123 0 55.2001V49.2289C0 49.0167 0.0842858 48.8132 0.234315 48.6632C0.384345 48.5132 0.587829 48.4289 0.800003 48.4289H55.2002C55.4124 48.4289 55.6159 48.5132 55.7659 48.6632C55.9159 48.8132 56.0002 49.0167 56.0002 49.2289V55.2001C56.0002 55.4123 55.9159 55.6158 55.7659 55.7658C55.6159 55.9158 55.4124 56.0001 55.2002 56.0001ZM1.60001 54.4001H54.4002V50.0289H1.60001V54.4001Z" fill="white"/>
</svg>
