<svg width="26" height="26" viewBox="0 0 26 26" fill="none" xmlns="http://www.w3.org/2000/svg">
<path d="M25.5576 11.0314H0.443696C0.345186 11.0314 0.250712 10.9922 0.181055 10.9226C0.111398 10.8529 0.0722656 10.7584 0.0722656 10.6599V7.95072C0.0722647 7.88677 0.0887788 7.82389 0.120209 7.76819C0.151639 7.71249 0.19692 7.66585 0.251666 7.63278L12.806 0.0533792C12.8639 0.0184564 12.9302 0 12.9978 0C13.0655 0 13.1318 0.0184564 13.1897 0.0533792L25.7492 7.63278C25.804 7.66585 25.8493 7.71249 25.8807 7.76819C25.9121 7.82389 25.9286 7.88677 25.9286 7.95072V10.6599C25.9286 10.7584 25.8895 10.8528 25.82 10.9224C25.7504 10.9921 25.656 11.0313 25.5576 11.0314ZM0.815497 10.2885H25.1861V8.16021L12.9984 0.805154L0.815497 8.15947V10.2885Z" fill="white"/>
<path d="M12.9989 8.28741C12.5595 8.28741 12.13 8.15712 11.7647 7.91301C11.3993 7.66891 11.1146 7.32195 10.9464 6.91602C10.7783 6.51009 10.7343 6.06342 10.82 5.63249C10.9057 5.20155 11.1173 4.80572 11.428 4.49503C11.7387 4.18434 12.1345 3.97277 12.5655 3.88705C12.9964 3.80133 13.4431 3.84532 13.849 4.01346C14.2549 4.18161 14.6019 4.46634 14.846 4.83167C15.0901 5.197 15.2204 5.62651 15.2204 6.06588C15.2197 6.65486 14.9854 7.21951 14.569 7.63598C14.1525 8.05245 13.5878 8.28672 12.9989 8.28741ZM12.9989 4.58685C12.7064 4.58685 12.4205 4.67357 12.1774 4.83605C11.9342 4.99853 11.7447 5.22946 11.6328 5.49965C11.5208 5.76984 11.4916 6.06715 11.5486 6.35399C11.6057 6.64082 11.7465 6.90429 11.9533 7.11109C12.1601 7.31788 12.4236 7.45871 12.7104 7.51576C12.9972 7.57282 13.2945 7.54354 13.5647 7.43162C13.8349 7.3197 14.0659 7.13018 14.2283 6.88701C14.3908 6.64385 14.4775 6.35796 14.4775 6.06551C14.477 5.6735 14.3211 5.29768 14.0439 5.02048C13.7667 4.74329 13.3909 4.58734 12.9989 4.58685Z" fill="white"/>
<path d="M23.3894 13.3779H19.4371C19.2243 13.3776 19.0203 13.2929 18.8699 13.1424C18.7195 12.992 18.635 12.788 18.6348 12.5752V10.6601C18.6348 10.5616 18.6739 10.4671 18.7436 10.3975C18.8132 10.3278 18.9077 10.2887 19.0062 10.2887H23.8203C23.9188 10.2887 24.0133 10.3278 24.0829 10.3975C24.1526 10.4671 24.1917 10.5616 24.1917 10.6601V12.5763C24.1912 12.7889 24.1065 12.9926 23.9562 13.1428C23.8058 13.2931 23.602 13.3776 23.3894 13.3779ZM19.378 11.0304V12.5752C19.378 12.591 19.3842 12.6062 19.3954 12.6174C19.4065 12.6286 19.4216 12.6349 19.4374 12.635H23.3894C23.4052 12.6349 23.4204 12.6286 23.4315 12.6174C23.4426 12.6062 23.4489 12.591 23.4489 12.5752V11.0316L19.378 11.0304Z" fill="white"/>
<path d="M23.052 20.8803H19.7738C19.6753 20.8803 19.5808 20.8411 19.5111 20.7715C19.4415 20.7018 19.4023 20.6073 19.4023 20.5088V13.006C19.4023 12.9074 19.4415 12.813 19.5111 12.7433C19.5808 12.6737 19.6753 12.6345 19.7738 12.6345H23.052C23.1505 12.6345 23.245 12.6737 23.3147 12.7433C23.3843 12.813 23.4234 12.9074 23.4234 13.006V20.5088C23.4234 20.6073 23.3843 20.7018 23.3147 20.7715C23.245 20.8411 23.1505 20.8803 23.052 20.8803ZM20.1452 20.1374H22.6806V13.3774H20.1452V20.1374Z" fill="white"/>
<path d="M23.8203 23.2278H19.0062C18.9077 23.2278 18.8132 23.1886 18.7436 23.119C18.6739 23.0493 18.6348 22.9548 18.6348 22.8563V20.9401C18.635 20.7274 18.7195 20.5234 18.8699 20.3729C19.0203 20.2224 19.2243 20.1377 19.4371 20.1375H23.3894C23.6022 20.1377 23.8061 20.2224 23.9565 20.3729C24.107 20.5234 24.1915 20.7274 24.1917 20.9401V22.8563C24.1917 22.9548 24.1526 23.0493 24.0829 23.119C24.0133 23.1886 23.9188 23.2278 23.8203 23.2278ZM19.3776 22.4849H23.4489V20.9401C23.4489 20.9243 23.4426 20.9092 23.4315 20.898C23.4204 20.8868 23.4052 20.8804 23.3894 20.8803H19.4371C19.4213 20.8804 19.4061 20.8868 19.395 20.898C19.3839 20.9092 19.3776 20.9243 19.3776 20.9401V22.4849Z" fill="white"/>
<path d="M14.975 13.3779H11.023C10.8102 13.3776 10.6063 13.2929 10.4559 13.1424C10.3055 12.992 10.2209 12.788 10.2207 12.5752V10.6601C10.2207 10.5616 10.2598 10.4671 10.3295 10.3975C10.3991 10.3278 10.4936 10.2887 10.5921 10.2887H15.4059C15.5044 10.2887 15.5989 10.3278 15.6685 10.3975C15.7382 10.4671 15.7773 10.5616 15.7773 10.6601V12.5763C15.7768 12.7889 15.6921 12.9926 15.5417 13.1428C15.3914 13.2931 15.1876 13.3776 14.975 13.3779ZM10.9636 11.0316V12.5763C10.9636 12.5921 10.9698 12.6073 10.9809 12.6185C10.9921 12.6297 11.0072 12.636 11.023 12.6361H14.975C14.9908 12.636 15.0059 12.6297 15.0171 12.6185C15.0282 12.6073 15.0344 12.5921 15.0344 12.5763V11.0316H10.9636Z" fill="white"/>
<path d="M14.6342 20.8803H11.3656C11.2671 20.8803 11.1726 20.8411 11.1029 20.7715C11.0333 20.7018 10.9941 20.6073 10.9941 20.5088V13.006C10.9941 12.9074 11.0333 12.813 11.1029 12.7433C11.1726 12.6737 11.2671 12.6345 11.3656 12.6345H14.6342C14.7327 12.6345 14.8271 12.6737 14.8968 12.7433C14.9665 12.813 15.0056 12.9074 15.0056 13.006V20.5088C15.0056 20.6073 14.9665 20.7018 14.8968 20.7715C14.8271 20.8411 14.7327 20.8803 14.6342 20.8803ZM11.737 20.1374H14.2627V13.3774H11.737V20.1374Z" fill="white"/>
<path d="M15.4059 23.2278H10.5921C10.4936 23.2278 10.3991 23.1886 10.3295 23.119C10.2598 23.0493 10.2207 22.9548 10.2207 22.8563V20.9401C10.2209 20.7274 10.3055 20.5234 10.4559 20.3729C10.6063 20.2224 10.8102 20.1377 11.023 20.1375H14.975C15.1878 20.1377 15.3917 20.2224 15.5421 20.3729C15.6925 20.5234 15.7771 20.7274 15.7773 20.9401V22.8563C15.7773 22.9548 15.7382 23.0493 15.6685 23.119C15.5989 23.1886 15.5044 23.2278 15.4059 23.2278ZM10.9632 22.4849H15.0344V20.9401C15.0344 20.9243 15.0282 20.9092 15.0171 20.898C15.0059 20.8868 14.9908 20.8804 14.975 20.8803H11.023C11.0072 20.8804 10.9921 20.8868 10.9809 20.898C10.9698 20.9092 10.9636 20.9243 10.9636 20.9401L10.9632 22.4849Z" fill="white"/>
<path d="M6.93436 13.3779H2.98198C2.76922 13.3776 2.56527 13.2929 2.41487 13.1424C2.26446 12.992 2.17988 12.788 2.17969 12.5752V10.6601C2.17969 10.5616 2.21882 10.4671 2.28848 10.3975C2.35813 10.3278 2.45261 10.2887 2.55112 10.2887H7.36522C7.46373 10.2887 7.55821 10.3278 7.62786 10.3975C7.69752 10.4671 7.73665 10.5616 7.73665 10.6601V12.5763C7.73616 12.7889 7.65145 12.9926 7.50108 13.1428C7.35071 13.2931 7.14692 13.3776 6.93436 13.3779ZM2.92255 11.0316V12.5763C2.92255 12.5921 2.9288 12.6073 2.93993 12.6185C2.95107 12.6297 2.96618 12.636 2.98198 12.6361H6.93436C6.95016 12.636 6.96527 12.6297 6.97641 12.6185C6.98754 12.6073 6.99379 12.5921 6.99379 12.5763V11.0316H2.92255Z" fill="white"/>
<path d="M6.61075 20.8803H3.30502C3.20651 20.8803 3.11204 20.8411 3.04238 20.7715C2.97273 20.7018 2.93359 20.6073 2.93359 20.5088V13.006C2.93359 12.9074 2.97273 12.813 3.04238 12.7433C3.11204 12.6737 3.20651 12.6345 3.30502 12.6345H6.61075C6.70926 12.6345 6.80374 12.6737 6.87339 12.7433C6.94305 12.813 6.98218 12.9074 6.98218 13.006V20.5088C6.98218 20.6073 6.94305 20.7018 6.87339 20.7715C6.80374 20.8411 6.70926 20.8803 6.61075 20.8803ZM3.67645 20.1374H6.23932V13.3774H3.67645V20.1374Z" fill="white"/>
<path d="M7.36522 23.2278H2.55112C2.45261 23.2278 2.35813 23.1886 2.28848 23.119C2.21882 23.0493 2.17969 22.9548 2.17969 22.8563V20.9401C2.17988 20.7274 2.26446 20.5234 2.41487 20.3729C2.56527 20.2224 2.76922 20.1377 2.98198 20.1375H6.93436C7.14712 20.1377 7.35107 20.2224 7.50147 20.3729C7.65188 20.5234 7.73646 20.7274 7.73665 20.9401V22.8563C7.73665 22.9548 7.69752 23.0493 7.62786 23.119C7.55821 23.1886 7.46373 23.2278 7.36522 23.2278ZM2.92255 22.4849H6.99379V20.9401C6.99379 20.9243 6.98754 20.9092 6.97641 20.898C6.96527 20.8868 6.95016 20.8804 6.93436 20.8803H2.98198C2.96618 20.8804 2.95107 20.8868 2.93993 20.898C2.9288 20.9092 2.92255 20.9243 2.92255 20.9401V22.4849Z" fill="white"/>
<path d="M25.6287 26H0.37143C0.272921 26 0.178446 25.9608 0.108789 25.8912C0.0391327 25.8215 0 25.727 0 25.6285V22.8562C0 22.7577 0.0391327 22.6632 0.108789 22.5935C0.178446 22.5239 0.272921 22.4847 0.37143 22.4847H25.6287C25.7272 22.4847 25.8217 22.5239 25.8913 22.5935C25.961 22.6632 26.0001 22.7577 26.0001 22.8562V25.6285C26.0001 25.727 25.961 25.8215 25.8913 25.8912C25.8217 25.9608 25.7272 26 25.6287 26ZM0.74286 25.2571H25.2572V23.2276H0.74286V25.2571Z" fill="white"/>
</svg>
