<svg width="96" height="96" viewBox="0 0 96 96" fill="none" xmlns="http://www.w3.org/2000/svg">
<path d="M94.3671 40.7312H1.63901C1.27529 40.7312 0.926456 40.5867 0.669262 40.3295C0.412068 40.0723 0.267578 39.7235 0.267578 39.3598V29.3565C0.267575 29.1204 0.32855 28.8882 0.444599 28.6826C0.560648 28.4769 0.727839 28.3047 0.929981 28.1826L47.2845 0.197093C47.4982 0.0681467 47.7431 0 47.9928 0C48.2424 0 48.4874 0.0681467 48.7011 0.197093L95.0748 28.1826C95.2769 28.3047 95.4441 28.4769 95.5602 28.6826C95.6762 28.8882 95.7372 29.1204 95.7372 29.3565V39.3598C95.7372 39.7233 95.5929 40.0719 95.336 40.329C95.0791 40.5862 94.7306 40.7308 94.3671 40.7312ZM3.01182 37.9883H92.9957V30.13L47.9949 2.97288L3.01182 30.1273V37.9883Z" fill="white"/>
<path d="M47.9994 30.5998C46.3771 30.5998 44.7912 30.1188 43.4423 29.2175C42.0934 28.3162 41.0421 27.0351 40.4213 25.5363C39.8004 24.0375 39.638 22.3882 39.9545 20.7971C40.271 19.2059 41.0522 17.7444 42.1993 16.5972C43.3465 15.4501 44.808 14.6689 46.3992 14.3524C47.9903 14.0359 49.6396 14.1983 51.1384 14.8191C52.6372 15.44 53.9183 16.4913 54.8196 17.8402C55.7209 19.1891 56.202 20.775 56.202 22.3973C56.1994 24.572 55.3344 26.6568 53.7967 28.1946C52.259 29.7323 50.1741 30.5973 47.9994 30.5998ZM47.9994 16.9362C46.9196 16.9362 45.864 17.2565 44.9662 17.8564C44.0684 18.4563 43.3686 19.309 42.9553 20.3066C42.5421 21.3042 42.434 22.402 42.6447 23.4611C42.8553 24.5201 43.3753 25.493 44.1389 26.2565C44.9024 27.0201 45.8752 27.54 46.9343 27.7507C47.9934 27.9614 49.0911 27.8532 50.0888 27.44C51.0864 27.0268 51.9391 26.327 52.539 25.4292C53.1389 24.5313 53.4591 23.4757 53.4591 22.3959C53.4573 20.9485 52.8815 19.5609 51.858 18.5374C50.8345 17.5139 49.4469 16.9381 47.9994 16.9362Z" fill="white"/>
<path d="M86.3624 49.3942H71.7689C70.9834 49.3931 70.2303 49.0805 69.675 48.5249C69.1197 47.9693 68.8074 47.2161 68.8066 46.4306V39.3594C68.8066 38.9957 68.9511 38.6469 69.2083 38.3897C69.4655 38.1325 69.8143 37.988 70.1781 37.988H87.9532C88.317 37.988 88.6658 38.1325 88.923 38.3897C89.1802 38.6469 89.3247 38.9957 89.3247 39.3594V46.4347C89.3229 47.2195 89.0101 47.9716 88.4549 48.5264C87.8996 49.0811 87.1472 49.3931 86.3624 49.3942ZM71.5509 40.7268V46.4306C71.5509 46.4889 71.574 46.5448 71.6151 46.5862C71.6562 46.6276 71.712 46.651 71.7703 46.6514H86.3624C86.4207 46.651 86.4765 46.6276 86.5176 46.5862C86.5587 46.5448 86.5818 46.4889 86.5818 46.4306V40.7309L71.5509 40.7268Z" fill="white"/>
<path d="M85.1144 77.0957H73.0101C72.6464 77.0957 72.2975 76.9512 72.0404 76.694C71.7832 76.4368 71.6387 76.088 71.6387 75.7242V48.0213C71.6387 47.6575 71.7832 47.3087 72.0404 47.0515C72.2975 46.7943 72.6464 46.6498 73.0101 46.6498H85.1144C85.4781 46.6498 85.8269 46.7943 86.0841 47.0515C86.3413 47.3087 86.4858 47.6575 86.4858 48.0213V75.7242C86.4858 76.088 86.3413 76.4368 86.0841 76.694C85.8269 76.9512 85.4781 77.0957 85.1144 77.0957ZM74.3815 74.3528H83.7429V49.3927H74.3815V74.3528Z" fill="white"/>
<path d="M87.9532 85.7633H70.1781C69.8143 85.7633 69.4655 85.6188 69.2083 85.3616C68.9511 85.1044 68.8066 84.7556 68.8066 84.3919V77.3166C68.8074 76.5311 69.1197 75.7779 69.675 75.2223C70.2303 74.6667 70.9834 74.3541 71.7689 74.353H86.3624C87.1479 74.3541 87.901 74.6667 88.4563 75.2223C89.0116 75.7779 89.3239 76.5311 89.3247 77.3166V84.3919C89.3247 84.7556 89.1802 85.1044 88.923 85.3616C88.6658 85.6188 88.317 85.7633 87.9532 85.7633ZM71.5495 83.0204H86.5818V77.3166C86.5818 77.2583 86.5587 77.2024 86.5176 77.161C86.4765 77.1196 86.4207 77.0962 86.3624 77.0958H71.7689C71.7106 77.0962 71.6548 77.1196 71.6137 77.161C71.5726 77.2024 71.5495 77.2583 71.5495 77.3166V83.0204Z" fill="white"/>
<path d="M55.2946 49.3942H40.7025C39.917 49.3931 39.1639 49.0805 38.6086 48.5249C38.0532 47.9693 37.741 47.2161 37.7402 46.4306V39.3594C37.7402 38.9957 37.8847 38.6469 38.1419 38.3897C38.3991 38.1325 38.7479 37.988 39.1117 37.988H56.8855C57.2492 37.988 57.598 38.1325 57.8552 38.3897C58.1124 38.6469 58.2569 38.9957 58.2569 39.3594V46.4347C58.2551 47.2195 57.9423 47.9716 57.3871 48.5264C56.8319 49.0811 56.0794 49.3931 55.2946 49.3942ZM40.4831 40.7309V46.4347C40.4831 46.493 40.5062 46.5489 40.5473 46.5903C40.5884 46.6317 40.6442 46.6551 40.7025 46.6555H55.2946C55.3529 46.6551 55.4087 46.6317 55.4498 46.5903C55.4909 46.5489 55.514 46.493 55.514 46.4347V40.7309H40.4831Z" fill="white"/>
<path d="M54.0338 77.0957H41.9652C41.6015 77.0957 41.2526 76.9512 40.9954 76.694C40.7382 76.4368 40.5938 76.088 40.5938 75.7242V48.0213C40.5938 47.6575 40.7382 47.3087 40.9954 47.0515C41.2526 46.7943 41.6015 46.6498 41.9652 46.6498H54.0338C54.3975 46.6498 54.7464 46.7943 55.0036 47.0515C55.2607 47.3087 55.4052 47.6575 55.4052 48.0213V75.7242C55.4052 76.088 55.2607 76.4368 55.0036 76.694C54.7464 76.9512 54.3975 77.0957 54.0338 77.0957ZM43.3366 74.3528H52.6624V49.3927H43.3366V74.3528Z" fill="white"/>
<path d="M56.8855 85.7633H39.1117C38.7479 85.7633 38.3991 85.6188 38.1419 85.3616C37.8847 85.1044 37.7402 84.7556 37.7402 84.3919V77.3166C37.741 76.5311 38.0532 75.7779 38.6086 75.2223C39.1639 74.6667 39.917 74.3541 40.7025 74.353H55.2946C56.0801 74.3541 56.8332 74.6667 57.3885 75.2223C57.9439 75.7779 58.2562 76.5311 58.2569 77.3166V84.3919C58.2569 84.7556 58.1124 85.1044 57.8552 85.3616C57.598 85.6188 57.2492 85.7633 56.8855 85.7633ZM40.4817 83.0204H55.514V77.3166C55.514 77.2583 55.4909 77.2024 55.4498 77.161C55.4087 77.1196 55.3529 77.0962 55.2946 77.0958H40.7025C40.6442 77.0962 40.5884 77.1196 40.5473 77.161C40.5062 77.2024 40.4831 77.2583 40.4831 77.3166L40.4817 83.0204Z" fill="white"/>
<path d="M25.6046 49.3942H11.0111C10.2256 49.3931 9.47253 49.0805 8.91718 48.5249C8.36184 47.9693 8.04955 47.2161 8.04883 46.4306V39.3594C8.04883 38.9957 8.19332 38.6469 8.45051 38.3897C8.70771 38.1325 9.05654 37.988 9.42026 37.988H27.1954C27.5591 37.988 27.908 38.1325 28.1652 38.3897C28.4224 38.6469 28.5669 38.9957 28.5669 39.3594V46.4347C28.565 47.2195 28.2523 47.9716 27.697 48.5264C27.1418 49.0811 26.3894 49.3931 25.6046 49.3942ZM10.7917 40.7309V46.4347C10.7917 46.493 10.8148 46.5489 10.8559 46.5903C10.897 46.6317 10.9528 46.6551 11.0111 46.6555H25.6046C25.6629 46.6551 25.7187 46.6317 25.7598 46.5903C25.8009 46.5489 25.824 46.493 25.824 46.4347V40.7309H10.7917Z" fill="white"/>
<path d="M24.4112 77.0957H12.2054C11.8417 77.0957 11.4929 76.9512 11.2357 76.694C10.9785 76.4368 10.834 76.088 10.834 75.7242V48.0213C10.834 47.6575 10.9785 47.3087 11.2357 47.0515C11.4929 46.7943 11.8417 46.6498 12.2054 46.6498H24.4112C24.7749 46.6498 25.1237 46.7943 25.3809 47.0515C25.6381 47.3087 25.7826 47.6575 25.7826 48.0213V75.7242C25.7826 76.088 25.6381 76.4368 25.3809 76.694C25.1237 76.9512 24.7749 77.0957 24.4112 77.0957ZM13.5769 74.3528H23.0397V49.3927H13.5769V74.3528Z" fill="white"/>
<path d="M27.1954 85.7633H9.42026C9.05654 85.7633 8.70771 85.6188 8.45051 85.3616C8.19332 85.1044 8.04883 84.7556 8.04883 84.3919V77.3166C8.04955 76.5311 8.36184 75.7779 8.91718 75.2223C9.47253 74.6667 10.2256 74.3541 11.0111 74.353H25.6046C26.3901 74.3541 27.1432 74.6667 27.6985 75.2223C28.2538 75.7779 28.5661 76.5311 28.5669 77.3166V84.3919C28.5669 84.7556 28.4224 85.1044 28.1652 85.3616C27.908 85.6188 27.5591 85.7633 27.1954 85.7633ZM10.7917 83.0204H25.824V77.3166C25.824 77.2583 25.8009 77.2024 25.7598 77.161C25.7187 77.1196 25.6629 77.0962 25.6046 77.0958H11.0111C10.9528 77.0962 10.897 77.1196 10.8559 77.161C10.8148 77.2024 10.7917 77.2583 10.7917 77.3166V83.0204Z" fill="white"/>
<path d="M94.6289 95.9999H1.37143C1.00771 95.9999 0.658877 95.8554 0.401684 95.5982C0.14449 95.341 0 94.9922 0 94.6284V84.3921C0 84.0283 0.14449 83.6795 0.401684 83.4223C0.658877 83.1651 1.00771 83.0206 1.37143 83.0206H94.6289C94.9927 83.0206 95.3415 83.1651 95.5987 83.4223C95.8559 83.6795 96.0004 84.0283 96.0004 84.3921V94.6284C96.0004 94.9922 95.8559 95.341 95.5987 95.5982C95.3415 95.8554 94.9927 95.9999 94.6289 95.9999ZM2.74287 93.257H93.2575V85.7635H2.74287V93.257Z" fill="white"/>
</svg>
