<svg width="325" height="55" viewBox="0 0 325 55" fill="none" xmlns="http://www.w3.org/2000/svg">
<g clip-path="url(#clip0_683_1360)">
<path d="M27.2974 54.9776V44.2857C38.6043 44.2857 47.3261 33.1093 42.9668 21.2825C42.1736 19.0874 40.9089 17.0938 39.2622 15.4429C37.6154 13.792 35.6269 12.524 33.4374 11.7288C30.8961 10.7708 28.1615 10.4427 25.4665 10.7725C22.7715 11.1024 20.196 12.0803 17.9592 13.6231C15.7224 15.1659 13.8907 17.2278 12.6201 19.6332C11.3494 22.0386 10.6775 24.7163 10.6614 27.4382H0C0 9.61838 17.2847 -4.47488 36.1814 1.35883C40.2423 2.63764 43.9347 4.8815 46.9443 7.89928C49.9538 10.9171 52.1913 14.6194 53.4661 18.6909C59.2817 37.6456 45.2275 54.9776 27.2974 54.9776Z" fill="#0080FF"/>
<path d="M27.4588 44.2857H16.7974V33.7564H27.4588M16.7974 52.5485H8.72101V44.2857H16.7974V52.5485ZM8.72101 44.2857H1.94531V37.483H8.72101M97.4019 15.9366C94.3335 13.8295 90.2954 12.6848 85.7707 12.6848H75.9201V44.2727H85.7739C90.2975 44.2727 94.1746 43.1389 97.4051 40.8714C99.1696 39.5844 100.563 37.8522 101.443 35.8506C102.416 33.7434 102.896 31.1518 102.896 28.3975C102.896 25.6432 102.413 23.0515 101.443 21.107C100.47 18.6909 99.1793 17.0715 97.4019 15.9366ZM81.7357 18.0438H84.8041C88.1968 18.0438 91.103 18.6942 93.3637 20.151C95.7866 21.6078 96.9316 24.3783 96.9316 28.4138C96.9316 32.4492 95.6342 35.3791 93.3637 36.9985C91.2652 38.2992 88.5179 39.1056 84.963 39.1056H81.7357V18.0438ZM109.841 12.2133C109.392 12.2013 108.945 12.2817 108.529 12.4495C108.112 12.6172 107.734 12.8689 107.418 13.1889C107.05 13.474 106.755 13.8433 106.558 14.2658C106.361 14.6883 106.268 15.1519 106.286 15.618C106.286 16.5201 106.643 17.3852 107.28 18.0231C107.916 18.661 108.779 19.0193 109.679 19.0193C110.578 19.0193 111.441 18.661 112.078 18.0231C112.714 17.3852 113.071 16.5201 113.071 15.618C113.083 15.1679 113.003 14.7202 112.836 14.3025C112.668 13.8847 112.417 13.5057 112.098 13.1889C111.615 12.5385 110.801 12.2133 109.828 12.2133M106.909 21.9329H112.562V44.1264H106.931V21.9329M132.776 23.884C131.154 22.4272 129.208 21.4549 127.122 21.4549C125.699 21.4235 124.285 21.6973 122.975 22.2581C121.666 22.819 120.491 23.6538 119.529 24.7067C117.512 26.8493 116.41 29.6982 116.461 32.6443C116.461 35.7238 117.434 38.4748 119.38 40.582C121.326 42.6891 123.901 43.6614 126.973 43.6614C128.95 43.6925 130.881 43.0658 132.464 41.8794V42.3639C132.464 44.1459 131.981 45.6157 131.011 46.5913C130.041 47.5668 128.741 48.0481 126.973 48.0481C124.378 48.0481 122.773 47.0725 120.836 44.3215L116.944 48.0481L117.106 48.2107C117.914 49.3455 119.205 50.4869 120.82 51.612C122.435 52.7371 124.534 53.2379 126.957 53.2379C130.35 53.2379 132.935 52.2624 134.871 50.1585C136.807 48.0546 137.939 45.4596 137.939 42.0583V21.9329H132.455V23.884H132.779M131.326 37.005C130.353 38.1399 129.055 38.6309 127.434 38.6309C125.812 38.6309 124.514 38.1464 123.541 37.005C122.568 35.8636 122.088 34.4036 122.088 32.6313C122.088 30.8591 122.604 29.3828 123.577 28.2479C124.55 27.113 125.848 26.622 127.469 26.622C129.091 26.622 130.388 27.1065 131.361 28.2479C132.335 29.3893 132.815 30.8493 132.815 32.6216C132.815 34.3938 132.331 35.8734 131.361 36.9952M143.152 21.9297H148.805V44.1232H143.116V21.9329M145.863 12.2133C145.415 12.2022 144.969 12.2825 144.552 12.4495C144.135 12.6165 143.757 12.8666 143.439 13.1847C143.122 13.5028 142.873 13.8823 142.706 14.3C142.54 14.7177 142.459 15.165 142.471 15.6147C142.471 16.5168 142.828 17.382 143.464 18.0198C144.1 18.6577 144.963 19.0161 145.863 19.0161C146.763 19.0161 147.626 18.6577 148.262 18.0198C148.898 17.382 149.256 16.5168 149.256 15.6147C149.267 15.1647 149.187 14.7171 149.02 14.2992C148.853 13.8813 148.604 13.5017 148.286 13.1835C147.968 12.8654 147.589 12.6153 147.172 12.4485C146.755 12.2818 146.309 12.2017 145.86 12.2133M160.877 15.9366H155.393V21.9329H152.149V26.9537H155.393V36.1888C155.393 39.1154 156.041 41.2095 157.17 42.3444C158.299 43.4793 160.414 44.1264 163.148 44.1264C164.067 44.1531 164.986 44.0987 165.895 43.9638H166.22V38.9398L164.273 39.1024C162.976 39.1024 162.003 38.9398 161.679 38.452C161.195 37.9675 161.03 36.9952 161.03 35.5254V27.1163H166.2V22.0923H161.046L160.877 15.9366ZM192.213 12.6848H197.866V44.2727H192.22V12.7044M254.248 36.3546C253.423 37.3124 252.502 38.184 251.501 38.9561C250.621 39.4908 249.611 39.7711 248.582 39.7658C247.824 39.7591 247.076 39.596 246.384 39.2867C245.692 38.9773 245.071 38.5282 244.56 37.9675C243.428 36.6668 242.938 35.2132 242.938 33.2687C242.938 31.3241 243.422 29.8673 244.56 28.5698C245.051 27.9809 245.67 27.5137 246.371 27.2045C247.071 26.8954 247.834 26.7528 248.598 26.7879C250.376 26.7879 252.312 27.9227 253.927 29.8673L257.641 26.2903C255.218 23.2109 252.15 21.7541 248.433 21.7541C245.364 21.7541 242.779 22.889 240.519 25.1555C238.403 27.3796 237.239 30.3451 237.275 33.4183C237.275 36.67 238.407 39.5739 240.519 41.6811C241.523 42.7763 242.748 43.6457 244.112 44.232C245.476 44.8183 246.949 45.1081 248.433 45.0824C252.471 45.0824 255.702 43.3004 257.962 40.0617L254.248 36.3351M277.024 25.1587C276.174 24.0361 275.06 23.1423 273.781 22.5573C272.315 21.8766 270.712 21.5428 269.097 21.5817C266.029 21.5817 263.444 22.7166 261.504 24.9831C259.669 27.339 258.698 30.257 258.757 33.2459C258.757 36.6473 259.73 39.4016 261.825 41.5087C263.921 43.6159 266.509 44.7605 269.902 44.7605C273.615 44.7605 276.687 43.3037 279.11 40.2243L279.272 40.0617L275.558 36.4847C275.234 36.9692 274.751 37.2944 274.261 37.7854C273.802 38.2698 273.251 38.6559 272.639 38.9203C271.799 39.3818 270.849 39.6065 269.892 39.5706C268.485 39.5911 267.113 39.1325 266 38.2699C265.027 37.4602 264.547 36.3189 264.378 34.8686H279.24V32.7614C279.276 31.3248 279.056 29.8933 278.591 28.5341C278.355 27.2781 277.796 26.1057 276.969 25.1327M264.91 30.3551C265.157 29.3747 265.658 28.4772 266.363 27.7536C266.745 27.3722 267.201 27.0743 267.704 26.879C268.206 26.6836 268.744 26.595 269.282 26.6188C270.58 26.6188 271.705 26.9439 272.351 27.7536C272.999 28.404 273.324 29.3795 273.482 30.3551H264.91ZM298.509 23.7117C296.888 22.2549 294.471 21.6045 291.565 21.6045C289.788 21.655 288.036 22.0411 286.401 22.7426C284.948 23.5523 283.482 24.6937 282.688 26.3196L286.255 29.721C287.709 27.2919 289.324 26.4692 291.585 26.4692C292.642 26.4411 293.675 26.7864 294.504 27.4447C294.872 27.7299 295.167 28.0991 295.363 28.5217C295.56 28.9442 295.654 29.4078 295.636 29.8738V31.0087C294.335 30.5687 292.97 30.3489 291.598 30.3583C288.851 30.3583 286.59 31.0087 284.812 32.3094C283.035 33.6101 282.217 35.5612 282.217 37.8179C282.217 39.9251 282.866 41.5445 284.316 42.8387C285.766 44.1329 287.559 44.6207 289.645 44.6207C291.731 44.6207 293.683 43.811 295.623 42.3444V44.1264H301.114V29.8706C301.114 27.2691 300.306 25.1717 298.519 23.7149M288.665 35.701C289.314 35.2165 290.118 35.0507 291.26 35.0507C292.694 35.0991 294.111 35.3723 295.461 35.8604V37.9675C294.124 39.1469 292.395 39.7825 290.615 39.7495C289.642 39.7495 288.837 39.5869 288.344 39.0991C287.851 38.6114 287.537 38.1236 287.537 37.4732C287.594 37.1144 287.724 36.7711 287.918 36.4646C288.113 36.1581 288.368 35.8949 288.669 35.6913M322.576 24.0368C320.955 22.2549 318.862 21.4354 316.115 21.4354C313.853 21.4354 312.077 22.0858 310.786 23.3865V22.0858H305.292V44.2792H310.945V31.9745C310.945 30.3486 311.269 28.895 312.077 27.926C312.472 27.4529 312.97 27.076 313.532 26.8236C314.094 26.5713 314.705 26.4501 315.321 26.4692C315.875 26.4421 316.427 26.5457 316.934 26.7716C317.441 26.9975 317.888 27.3394 318.24 27.7699C318.998 28.8054 319.396 30.0623 319.372 31.3469V44.3052H324.999V31.3274C324.837 28.249 324.029 25.8188 322.576 24.0368ZM185.275 23.7117C183.653 22.2549 181.237 21.6045 178.331 21.6045C176.552 21.6531 174.797 22.0382 173.161 22.7394C171.708 23.5491 170.241 24.6905 169.447 26.3163L173.015 29.7177C174.468 27.2886 176.083 26.4659 178.344 26.4659C179.401 26.4378 180.434 26.7831 181.263 27.4415C181.631 27.7266 181.926 28.0959 182.123 28.5184C182.32 28.9409 182.413 29.4045 182.395 29.8706V31.0054C181.094 30.5655 179.729 30.3457 178.357 30.3551C175.611 30.3551 173.349 31.0054 171.571 32.3061C169.794 33.6069 168.976 35.5579 168.976 37.8147C168.976 39.9218 169.625 41.5412 171.075 42.8354C172.525 44.1297 174.319 44.6174 176.404 44.6174C178.49 44.6174 180.442 43.8077 182.382 42.3412V44.1232H187.873V29.8706C187.873 27.2691 186.9 25.1717 185.278 23.7149M175.262 35.701C175.911 35.2165 176.716 35.0507 177.857 35.0507C179.291 35.0991 180.708 35.3723 182.058 35.8604V37.9675C180.721 39.1469 178.992 39.7825 177.212 39.7495C176.239 39.7495 175.434 39.5869 174.941 39.0991C174.448 38.6114 174.134 38.1236 174.134 37.4732C174.375 36.8027 174.762 36.1941 175.266 35.6913M218.08 44.7638C214.884 44.765 211.759 43.816 209.101 42.0367C206.443 40.2573 204.37 37.7276 203.146 34.7675C201.922 31.8073 201.601 28.5498 202.224 25.4068C202.847 22.2638 204.385 19.3765 206.645 17.1102C208.905 14.8439 211.784 13.3003 214.919 12.6747C218.053 12.0491 221.303 12.3695 224.256 13.5955C227.209 14.8215 229.733 16.8979 231.509 19.5622C233.285 22.2265 234.233 25.3589 234.233 28.5633C234.217 32.8541 232.511 36.9648 229.485 39.9994C226.459 43.0341 222.36 44.7466 218.08 44.7638ZM218.08 17.8747C216.002 17.8715 213.971 18.4861 212.241 19.6408C210.512 20.7956 209.164 22.4385 208.366 24.3618C207.568 26.2851 207.358 28.4024 207.761 30.4458C208.164 32.4892 209.162 34.3668 210.629 35.8413C212.097 37.3157 213.968 38.3206 216.005 38.729C218.042 39.1373 220.155 38.9307 222.075 38.1352C223.995 37.3397 225.637 35.9912 226.792 34.2602C227.948 32.5291 228.565 30.4934 228.566 28.4105C228.569 27.0272 228.3 25.6569 227.773 24.3783C227.247 23.0997 226.474 21.9379 225.498 20.9596C224.523 19.9813 223.364 19.2058 222.089 18.6775C220.814 18.1492 219.447 17.8786 218.067 17.8812" fill="#0080FF"/>
</g>
<defs>
<clipPath id="clip0_683_1360">
<rect width="325" height="55" fill="white"/>
</clipPath>
</defs>
</svg>
