<svg width="160" height="50" viewBox="0 0 160 50" fill="none" xmlns="http://www.w3.org/2000/svg">
<path d="M112.082 3.8395C109.59 5.0434 107.378 6.753 105.587 8.85864C102.099 12.6822 100.067 16.9954 101.571 18.141C102.148 18.5822 103.479 18.6587 105.897 16.4822C108.131 14.5545 109.885 12.1366 111.021 9.41894C112.581 5.62774 112.085 3.88656 112.085 3.84391M131.174 10.7292C127.297 8.74982 124.464 6.31745 121.518 4.82333C118.713 3.38509 116.887 2.78361 114.614 3.08655C114.297 3.1431 113.984 3.22122 113.678 3.32038C113.678 3.32038 114.849 7.30422 110.19 13.9954C105.466 20.7808 101.185 20.7337 99.9721 18.8704C98.6981 16.9028 100.344 12.894 103.094 9.32629C105.375 6.66053 108.051 4.35836 111.031 2.49979C111.031 2.49979 109.418 1.51743 105.459 3.75421C98.8255 7.89251 93.1419 13.3769 88.7784 19.8499C82.608 28.5911 81.3858 33.4014 80.5016 37.1867C79.6173 40.972 80.4204 45.0294 84.6348 45.0294C88.8492 45.0294 93.7545 38.625 95.1391 36.3999C97.7121 32.2529 99.3905 25.894 95.889 26.7675C94.1649 27.1984 92.7669 29.0999 91.8857 30.9323C91.3292 32.108 90.9035 33.3408 90.6162 34.6088C89.3926 35.1109 88.2434 35.7769 87.2004 36.5882C86.038 37.4439 84.9515 38.3974 83.9528 39.4382C84.2089 36.6575 85.0386 33.9595 86.3899 31.5132C87.2502 29.6301 88.5516 27.9803 90.1848 26.7023C91.818 25.4243 93.7352 24.5556 95.7754 24.169C98.0442 23.9881 100.997 25.9058 98.4944 32.9808C95.9923 40.0558 88.6042 48.6573 80.8544 48.7632C73.6979 48.8618 69.0156 39.7632 78.9767 23.8837C90.0021 6.34539 102.933 0.963016 107.133 0.363013C111.333 -0.23699 112.697 1.61008 112.697 1.61008C115.224 0.57801 117.953 0.130507 120.68 0.301248C125.806 0.645367 129.771 4.26156 134.998 6.80128C133.637 8.09687 132.341 9.45717 131.169 10.7322M154.197 4.82627C150.644 7.09687 145.727 9.15423 141.003 8.71305C139.806 9.94394 138.526 11.3689 137.245 12.9248C145.436 14.5425 152.613 9.48364 156.435 5.17921C157.829 3.63115 159.026 1.9183 160 0.0791881C158.262 1.88221 156.318 3.47506 154.206 4.8248M143.299 27.8161C143.36 27.7083 143.409 27.5944 143.446 27.4764C143.422 27.2896 143.334 27.1168 143.197 26.9867C143.061 26.8567 142.883 26.7772 142.695 26.7617C141.914 26.7249 140.851 26.8734 138.06 29.9514C135.744 32.4926 133.751 35.3079 132.126 38.3338C130.529 41.2411 129.88 43.4073 130.797 43.9676C131.096 44.1213 131.442 44.1565 131.766 44.0662C132.387 43.9191 133.094 43.3309 134.164 42.1014C134.666 41.5206 135.223 40.7 135.888 39.7897C137.735 37.2897 142.384 29.4058 143.294 27.8117M114.304 31.1646C114.769 29.9514 115.362 27.5705 114.13 26.6352C112.801 25.6425 109.43 27.972 109.406 30.3617C109.459 31.2065 109.77 32.015 110.298 32.6781C110.825 33.3413 111.545 33.8273 112.359 34.0705C112.686 34.1588 112.801 34.1455 112.959 33.8838C113.469 33.0094 113.917 32.1008 114.3 31.1646M111.744 35.6146C110.908 35.231 110.127 34.7363 109.424 34.144C108.719 33.5547 108.13 32.8402 107.686 32.0367C107.639 31.9587 107.593 32.019 107.539 32.0882C107.484 32.1573 107.279 32.347 105.472 34.9749C103.665 37.6029 100.906 43.047 103.406 43.975C105.009 44.5632 107.675 41.7691 109.129 39.9191C110.119 38.6258 111.017 37.2646 111.815 35.8455C111.891 35.6867 111.815 35.6514 111.734 35.6176M140.121 41.9073C139.442 42.9911 138.667 45.0691 140.901 43.7764C143.635 42.2029 147.529 36.3176 147.529 36.3176H149.301C147.693 38.7795 145.904 41.1184 143.947 43.3147C141.176 46.372 137.797 49.1515 135.418 48.8765C132.636 48.5529 133.507 44.9162 133.507 44.9162C133.507 44.9162 129.542 49.125 126.791 48.8309C123.074 48.4221 124.208 43.8441 124.208 43.8441C124.208 43.8441 120.004 48.9838 117.14 48.825C112.649 48.5662 113.779 43.1235 115.027 39.2911C115.696 37.2411 116.315 35.6323 116.315 35.6323C116.315 35.6323 115.872 35.7485 114.912 35.8911C114.413 35.9617 113.503 36.0132 113.503 36.0132C112.471 37.8225 111.348 39.5777 110.135 41.272C108.64 43.247 102.282 50.0544 98.5417 48.6912C95.0816 47.4323 96.2271 42.1559 98.2464 37.9558C101.185 31.8426 109.453 23.0602 114.221 24.2205C119.164 25.4146 114.334 34.3999 114.334 34.3999C114.334 34.3999 114.334 34.4338 114.385 34.4573C114.702 34.5147 115.028 34.4971 115.337 34.4058C115.955 34.2803 116.56 34.1007 117.146 33.869C120.072 27.8323 123.574 22.0897 127.603 16.7204C133.087 9.94394 144.035 -1.73553 148.332 1.08949C149.366 1.78361 148.905 4.17774 147.49 7.07922C146.852 7.28528 146.204 7.45806 145.548 7.59687C146.333 6.30014 146.926 4.89748 147.309 3.43214C147.958 -0.0722829 139.744 7.31893 133.876 15.2601C130.341 20.0486 127.2 25.1142 124.485 30.4073C125.546 29.7596 126.558 29.0361 127.514 28.2426C130.132 26.0803 132.62 23.7665 134.964 21.3131C137.224 19.0104 139.344 16.5751 141.312 14.0204C141.935 13.9908 142.556 13.9275 143.172 13.8307C141.028 16.7295 138.69 19.4808 136.175 22.0661C133.834 24.419 131.304 26.9617 129.1 28.8043C127.136 30.4692 125.065 32.0038 122.9 33.3985C122.9 33.3985 117.767 43.7103 120.559 44.3706C122.2 44.7647 125.442 39.7911 125.442 39.7911C125.442 39.7911 129.671 33.3617 132.22 30.4617C135.698 26.522 138.692 24.2425 141.684 24.1999C142.259 24.2554 142.812 24.4496 143.295 24.7658C143.777 25.082 144.175 25.5106 144.455 26.0146L145.274 24.7499H150.321C150.321 24.7499 140.896 40.6823 140.135 41.8823M154.209 4.82333C150.656 7.09393 145.739 9.15129 141.015 8.71011C139.818 9.941 138.538 11.366 137.257 12.9219C145.448 14.5395 152.625 9.4807 156.447 5.17627C157.836 3.62847 159.029 1.91664 160 0.0791881C158.262 1.88221 156.318 3.47506 154.206 4.8248M83.3328 12.6395H78.5324L75.8192 17.0072H80.6123L83.3328 12.6395ZM60.6 27.7617C62.6415 24.9675 68.276 15.1998 68.276 15.1998C68.252 15.0132 68.1644 14.8404 68.028 14.7103C67.8915 14.5803 67.7144 14.5008 67.5261 14.4851C66.7452 14.4484 65.4447 14.7101 62.8615 17.9322C60.6062 20.5726 58.5814 23.4 56.8092 26.3837C55.2061 29.294 54.5064 31.347 55.4275 31.9043C55.7265 32.0536 56.0699 32.0886 56.3929 32.0029C57.3784 31.5799 58.2282 30.8951 58.8493 30.0234C59.3541 29.4484 59.9269 28.6734 60.597 27.7631M34.8514 14.544C33.5228 13.5469 30.1513 15.8807 30.1277 18.266C30.107 20.7146 33.1641 21.4646 33.5583 21.4822C33.6745 21.4916 33.7909 21.4671 33.8934 21.4116C33.9638 21.3705 34.02 21.309 34.0543 21.2352C34.4139 20.5315 34.7371 19.81 35.0226 19.0734C35.4876 17.8602 36.0781 15.4793 34.8455 14.544M32.8453 22.9749C31.9306 22.69 31.0564 22.2891 30.2443 21.7822C29.4573 21.2709 28.8173 20.5645 28.3873 19.7322C28.3401 19.6543 28.2884 19.7146 28.2397 19.7837C28.191 19.8528 27.9223 20.191 26.117 22.8293C24.3116 25.4675 21.6368 30.8632 24.1419 31.7911C25.7391 32.3955 28.436 29.5749 29.8989 27.7308C30.995 26.2807 32.0078 24.7699 32.9324 23.2058C32.9929 23.0484 32.9324 23.0116 32.8438 22.9822M72.0417 24.5999H73.7998C73.7998 24.5999 64.9886 37.2985 60.0125 36.7073C57.2344 36.3838 58.0595 32.9676 58.0595 32.9676C58.0595 32.9676 54.158 37.5191 50.5725 36.5955C47.3249 35.7632 49.4196 30.3764 49.4196 30.3764C49.0505 30.5234 42.0137 38.4264 37.0686 36.5308C31.8946 34.5411 34.5813 27.9249 35.5644 25.9337C36.3999 24.2572 37.3225 22.6249 37.3225 22.6249C37.3225 22.6249 36.5298 22.8484 36.022 22.9616C35.5142 23.0749 34.7805 23.2205 34.7805 23.2205C34.7805 23.2205 32.3419 27.1837 30.8495 29.1617C29.3571 31.1396 22.9964 37.9338 19.2499 36.5808C15.5034 35.2279 16.4319 30.0058 18.5369 25.8602C21.9498 19.1352 30.0509 10.8704 34.9222 12.1248C39.8497 13.3763 35.7696 21.3381 35.7696 21.3381C35.7696 21.3381 36.7497 21.4646 39.0998 19.8675C42.4816 17.569 46.9455 11.3851 51.7785 12.1116C54.0577 12.4542 56.1804 14.7734 53.2768 19.1793C52.3512 20.594 50.7983 21.8587 49.6085 20.6072C48.8705 19.8293 49.5155 18.4116 50.292 17.4425C50.5947 17.0475 50.9903 16.7327 51.4438 16.5257C51.8974 16.3188 52.395 16.2261 52.893 16.2557C52.893 16.2557 53.6916 14.441 51.6604 14.4675C50.0159 14.4984 45.8547 18.316 43.5046 22.1719C41.3509 25.7117 38.0856 31.7426 41.3642 33.0543C44.3682 34.2617 50.0868 27.5014 52.7306 23.9587C55.3744 20.416 61.4222 12.3881 66.4854 12.066C67.0342 12.0667 67.5745 12.201 68.0592 12.4573C68.544 12.7137 68.9584 13.0842 69.2665 13.5366L69.857 12.6145H74.9143C74.9143 12.6145 65.3798 28.4646 64.6358 29.6646C64.0453 30.6029 63.2733 32.7117 65.4167 31.5308C67.5601 30.3499 72.0594 24.6014 72.0594 24.6014M69.3049 49.9985C65.5779 47.4279 61.1148 46.1302 56.5849 46.3C55.3599 46.3345 54.1603 46.6559 53.0832 47.2381C52.0061 47.8204 51.0817 48.6471 50.385 49.6515C48.4542 46.2956 44.6383 44.2353 38.7381 44.2823C29.2036 44.3912 19.7488 48.7706 12.2558 48.7662C5.07582 48.7662 -0.160112 44.2691 0.00374119 36.2852C0.309306 22.2705 12.1953 9.65129 21.067 3.97774C26.1804 0.711544 30.4569 -0.257578 33.2542 0.0556586C33.9094 0.153711 34.5308 0.409129 35.0647 0.799866C35.5987 1.1906 36.0292 1.70492 36.3191 2.29843C36.609 2.89194 36.7495 3.54682 36.7286 4.20653C36.7077 4.86625 36.526 5.51098 36.1991 6.0851C33.9258 11.141 30.786 10.7263 30.9027 8.30864C30.9523 7.67722 31.1509 7.0664 31.4823 6.52591C31.8137 5.98543 32.2686 5.53056 32.8099 5.19833C33.38 4.89621 34.0167 4.74053 34.6624 4.74539C35.1053 4.36744 35.4433 1.59978 31.8016 2.50861C28.16 3.41744 23.7359 6.99834 19.5363 11.6248C15.3366 16.2513 8.80164 24.9734 7.18525 34.144C6.43093 38.397 6.92544 46.1529 17.0475 46.0647C25.6313 45.9941 38.2849 40.3632 49.9126 40.4764C53.9647 40.4611 57.9442 41.5476 61.4222 43.6191C64.3811 45.3086 67.0465 47.4633 69.3152 50" fill="#E61D2B"/>
</svg>
