<svg width="375" height="220" viewBox="0 0 375 220" fill="none" xmlns="http://www.w3.org/2000/svg">
<mask id="mask0_220_1152" style="mask-type:luminance" maskUnits="userSpaceOnUse" x="0" y="0" width="375" height="220">
<path d="M375 0H0V220H375V0Z" fill="white"/>
<path d="M166.533 4.94141V38.633H102.08V215H67.0703V38.633H2.4707V4.94141H166.533ZM274.053 217.93C259.307 217.93 245.391 215.146 232.305 209.58C219.219 204.014 207.988 196.445 198.613 186.875C189.336 177.305 181.963 165.83 176.494 152.451C171.123 139.072 168.438 124.814 168.438 109.678C168.438 94.639 171.123 80.479 176.494 67.197C181.963 53.818 189.336 42.393 198.613 32.92C207.988 23.35 219.219 15.83 232.305 10.361C245.391 4.79492 259.307 2.01172 274.053 2.01172C289.971 2.01172 304.961 5.18551 319.023 11.533C333.184 17.881 344.902 26.768 354.18 38.193C363.555 49.521 369.316 62.266 371.465 76.426H332.793C329.375 64.512 322.246 54.844 311.406 47.422C300.566 39.902 288.115 36.143 274.053 36.143C254.424 36.143 237.969 43.174 224.688 57.236C211.406 71.299 204.766 88.779 204.766 109.678C204.766 130.674 211.406 148.301 224.688 162.559C237.969 176.719 254.424 183.799 274.053 183.799C288.311 183.799 300.908 179.844 311.846 171.934C322.881 163.926 329.961 153.574 333.086 140.879H372.197C367.998 163.633 356.768 182.188 338.506 196.543C320.342 210.801 298.857 217.93 274.053 217.93Z" fill="black"/>
</mask>
<g mask="url(#mask0_220_1152)">
<path d="M166.533 4.94141H168.533V2.94141H166.533V4.94141ZM166.533 38.633V40.633H168.533V38.633H166.533ZM102.08 38.633V36.633H100.08V38.633H102.08ZM102.08 215V217H104.08V215H102.08ZM67.0703 215H65.0703V217H67.0703V215ZM67.0703 38.633H69.0703V36.633H67.0703V38.633ZM2.4707 38.633H0.470703V40.633H2.4707V38.633ZM2.4707 4.94141V2.94141H0.470703V4.94141H2.4707ZM164.533 4.94141V38.633H168.533V4.94141H164.533ZM166.533 36.633H102.08V40.633H166.533V36.633ZM100.08 38.633V215H104.08V38.633H100.08ZM102.08 213H67.0703V217H102.08V213ZM69.0703 215V38.633H65.0703V215H69.0703ZM67.0703 36.633H2.4707V40.633H67.0703V36.633ZM4.4707 38.633V4.94141H0.470703V38.633H4.4707ZM2.4707 6.94141H166.533V2.94141H2.4707V6.94141ZM198.613 186.875L197.177 188.267L197.185 188.275L198.613 186.875ZM176.494 152.451L174.638 153.196L174.643 153.208L176.494 152.451ZM176.494 67.197L174.643 66.441L174.64 66.447L176.494 67.197ZM198.613 32.92L197.185 31.52L197.184 31.521L198.613 32.92ZM232.305 10.361L233.076 12.207L233.088 12.202L232.305 10.361ZM319.023 11.533L318.201 13.356L318.205 13.358L319.023 11.533ZM354.18 38.193L352.627 39.454L352.633 39.461L352.639 39.468L354.18 38.193ZM371.465 76.426V78.426H373.791L373.442 76.126L371.465 76.426ZM332.793 76.426L330.871 76.977L331.286 78.426H332.793V76.426ZM311.406 47.422L310.266 49.065L310.276 49.072L311.406 47.422ZM224.688 162.559L223.224 163.922L223.229 163.927L224.688 162.559ZM311.846 171.934L313.018 173.554L313.02 173.552L311.846 171.934ZM333.086 140.879V138.879H331.519L331.144 140.401L333.086 140.879ZM372.197 140.879L374.164 141.242L374.6 138.879H372.197V140.879ZM338.506 196.543L339.741 198.116L339.742 198.115L338.506 196.543ZM274.053 215.93C259.566 215.93 245.917 213.197 233.088 207.74L231.522 211.42C244.865 217.096 259.048 219.93 274.053 219.93V215.93ZM233.088 207.74C220.229 202.27 209.222 194.846 200.042 185.475L197.185 188.275C206.755 198.044 218.209 205.757 231.522 211.42L233.088 207.74ZM200.049 185.483C190.964 176.111 183.726 164.857 178.345 151.694L174.643 153.208C180.2 166.803 187.708 178.498 197.177 188.267L200.049 185.483ZM178.35 151.706C173.079 138.576 170.438 124.572 170.438 109.678H166.438C166.438 125.057 169.167 139.569 174.638 153.196L178.35 151.706ZM170.438 109.678C170.438 94.883 173.078 80.978 178.348 67.947L174.64 66.447C169.168 79.979 166.438 94.395 166.438 109.678H170.438ZM178.345 67.954C183.725 54.793 190.962 43.591 200.042 34.319L197.184 31.521C187.71 41.194 180.201 52.844 174.643 66.441L178.345 67.954ZM200.042 34.319C209.219 24.951 220.222 17.578 233.076 12.207L231.534 8.51601C218.215 14.082 206.758 21.748 197.185 31.52L200.042 34.319ZM233.088 12.202C245.917 6.74452 259.566 4.01172 274.053 4.01172V0.0117188C259.048 0.0117188 244.865 2.84532 231.522 8.52102L233.088 12.202ZM274.053 4.01172C289.696 4.01172 304.405 7.12902 318.201 13.356L319.846 9.71001C305.517 3.24221 290.245 0.0117188 274.053 0.0117188V4.01172ZM318.205 13.358C332.096 19.585 343.558 28.284 352.627 39.454L355.732 36.933C346.247 25.251 334.271 16.177 319.842 9.70802L318.205 13.358ZM352.639 39.468C361.789 50.525 367.395 62.934 369.487 76.726L373.442 76.126C371.238 61.597 365.32 48.518 355.72 36.918L352.639 39.468ZM371.465 74.426H332.793V78.426H371.465V74.426ZM334.715 75.874C331.161 63.485 323.735 53.439 312.536 45.772L310.276 49.072C320.757 56.248 327.589 65.539 330.871 76.977L334.715 75.874ZM312.546 45.779C301.349 38.011 288.494 34.143 274.053 34.143V38.143C287.736 38.143 299.784 41.794 310.266 49.065L312.546 45.779ZM274.053 34.143C253.883 34.143 236.899 41.394 223.233 55.863L226.142 58.61C239.039 44.954 254.965 38.143 274.053 38.143V34.143ZM223.233 55.863C209.572 70.328 202.766 88.314 202.766 109.678H206.766C206.766 89.245 213.241 72.269 226.142 58.61L223.233 55.863ZM202.766 109.678C202.766 131.137 209.57 149.264 223.224 163.922L226.151 161.195C213.243 147.338 206.766 130.211 206.766 109.678H202.766ZM223.229 163.927C236.893 178.495 253.878 185.799 274.053 185.799V181.799C254.97 181.799 239.045 174.942 226.146 161.19L223.229 163.927ZM274.053 185.799C288.706 185.799 301.719 181.725 313.018 173.554L310.674 170.313C300.097 177.962 287.915 181.799 274.053 181.799V185.799ZM313.02 173.552C324.42 165.28 331.785 154.532 335.028 141.357L331.144 140.401C328.137 152.616 321.342 162.572 310.671 170.315L313.02 173.552ZM333.086 142.879H372.197V138.879H333.086V142.879ZM370.23 140.516C366.12 162.789 355.151 180.915 337.27 194.971L339.742 198.115C358.385 183.46 369.876 164.476 374.164 141.242L370.23 140.516ZM337.271 194.97C319.486 208.93 298.445 215.93 274.053 215.93V219.93C299.27 219.93 321.198 212.672 339.741 198.116L337.271 194.97Z" fill="#1C95C9" fill-opacity="0.4"/>
</g>
</svg>
