<svg width="512" height="570" viewBox="0 0 512 570" fill="none" xmlns="http://www.w3.org/2000/svg">
<g clip-path="url(#clip0_214_1130)">
<rect width="512" height="570" rx="10" fill="#D3ECFF" fill-opacity="0.3"/>
<mask id="path-2-outside-1_214_1130" maskUnits="userSpaceOnUse" x="166" y="38" width="435" height="220" fill="black">
<rect fill="white" x="166" y="38" width="435" height="220"/>
<path d="M273.627 255.93C258.881 255.93 244.965 253.146 231.879 247.58C218.793 242.014 207.562 234.445 198.188 224.875C188.91 215.305 181.537 203.83 176.068 190.451C170.697 177.072 168.012 162.814 168.012 147.678C168.012 132.639 170.697 118.479 176.068 105.197C181.537 91.8184 188.91 80.3926 198.188 70.9199C207.562 61.3496 218.793 53.8301 231.879 48.3613C244.965 42.7949 258.881 40.0117 273.627 40.0117C289.545 40.0117 304.535 43.1855 318.598 49.5332C332.758 55.8809 344.477 64.7676 353.754 76.1934C363.129 87.5215 368.891 100.266 371.039 114.426H332.367C328.949 102.512 321.82 92.8438 310.98 85.4219C300.141 77.9023 287.689 74.1426 273.627 74.1426C253.998 74.1426 237.543 81.1738 224.262 95.2363C210.98 109.299 204.34 126.779 204.34 147.678C204.34 168.674 210.98 186.301 224.262 200.559C237.543 214.719 253.998 221.799 273.627 221.799C287.885 221.799 300.482 217.844 311.42 209.934C322.455 201.926 329.535 191.574 332.66 178.879H371.771C367.572 201.633 356.342 220.188 338.08 234.543C319.916 248.801 298.432 255.93 273.627 255.93ZM499.799 255.93C485.053 255.93 471.137 253.146 458.051 247.58C444.965 242.014 433.734 234.445 424.359 224.875C415.082 215.305 407.709 203.83 402.24 190.451C396.869 177.072 394.184 162.814 394.184 147.678C394.184 132.639 396.869 118.479 402.24 105.197C407.709 91.8184 415.082 80.3926 424.359 70.9199C433.734 61.3496 444.965 53.8301 458.051 48.3613C471.137 42.7949 485.053 40.0117 499.799 40.0117C515.717 40.0117 530.707 43.1855 544.77 49.5332C558.93 55.8809 570.648 64.7676 579.926 76.1934C589.301 87.5215 595.062 100.266 597.211 114.426H558.539C555.121 102.512 547.992 92.8438 537.152 85.4219C526.312 77.9023 513.861 74.1426 499.799 74.1426C480.17 74.1426 463.715 81.1738 450.434 95.2363C437.152 109.299 430.512 126.779 430.512 147.678C430.512 168.674 437.152 186.301 450.434 200.559C463.715 214.719 480.17 221.799 499.799 221.799C514.057 221.799 526.654 217.844 537.592 209.934C548.627 201.926 555.707 191.574 558.832 178.879H597.943C593.744 201.633 582.514 220.188 564.252 234.543C546.088 248.801 524.604 255.93 499.799 255.93Z"/>
</mask>
<path d="M198.188 224.875L196.751 226.267L196.759 226.275L198.188 224.875ZM176.068 190.451L174.212 191.196L174.217 191.208L176.068 190.451ZM176.068 105.197L174.217 104.441L174.214 104.447L176.068 105.197ZM198.188 70.9199L196.759 69.5204L196.759 69.5205L198.188 70.9199ZM231.879 48.3613L232.65 50.2067L232.662 50.2017L231.879 48.3613ZM318.598 49.5332L317.775 51.3561L317.78 51.3582L318.598 49.5332ZM353.754 76.1934L352.201 77.454L352.207 77.4613L352.213 77.4685L353.754 76.1934ZM371.039 114.426V116.426H373.365L373.016 114.126L371.039 114.426ZM332.367 114.426L330.445 114.977L330.86 116.426H332.367V114.426ZM310.98 85.4219L309.84 87.0652L309.851 87.0721L310.98 85.4219ZM224.262 200.559L222.798 201.922L222.803 201.927L224.262 200.559ZM311.42 209.934L312.592 211.554L312.595 211.552L311.42 209.934ZM332.66 178.879V176.879H331.093L330.718 178.401L332.66 178.879ZM371.771 178.879L373.738 179.242L374.174 176.879H371.771V178.879ZM338.08 234.543L339.315 236.116L339.316 236.115L338.08 234.543ZM273.627 253.93C259.14 253.93 245.491 251.197 232.662 245.74L231.096 249.42C244.439 255.096 258.622 257.93 273.627 257.93V253.93ZM232.662 245.74C219.803 240.27 208.796 232.846 199.616 223.475L196.759 226.275C206.329 236.044 217.783 243.757 231.096 249.42L232.662 245.74ZM199.624 223.483C190.538 214.111 183.3 202.857 177.92 189.694L174.217 191.208C179.774 204.803 187.282 216.498 196.751 226.267L199.624 223.483ZM177.924 189.706C172.653 176.576 170.012 162.572 170.012 147.678H166.012C166.012 163.057 168.741 177.569 174.212 191.196L177.924 189.706ZM170.012 147.678C170.012 132.883 172.652 118.978 177.922 105.947L174.214 104.447C168.742 117.979 166.012 132.395 166.012 147.678H170.012ZM177.92 105.954C183.299 92.7929 190.536 81.5911 199.616 72.3193L196.759 69.5205C187.285 79.1941 179.775 90.8438 174.217 104.441L177.92 105.954ZM199.616 72.3195C208.793 62.9513 219.796 55.5784 232.65 50.2067L231.108 46.516C217.79 52.0817 206.332 59.7479 196.759 69.5204L199.616 72.3195ZM232.662 50.2017C245.491 44.7445 259.14 42.0117 273.627 42.0117V38.0117C258.622 38.0117 244.439 40.8453 231.096 46.5209L232.662 50.2017ZM273.627 42.0117C289.27 42.0117 303.979 45.1289 317.775 51.3561L319.42 47.7103C305.091 41.2422 289.819 38.0117 273.627 38.0117V42.0117ZM317.78 51.3582C331.67 57.585 343.132 66.2845 352.201 77.454L355.307 74.9327C345.821 63.2507 333.846 54.1767 319.416 47.7082L317.78 51.3582ZM352.213 77.4685C361.363 88.525 366.969 100.934 369.062 114.726L373.016 114.126C370.812 99.5971 364.894 86.518 355.295 74.9182L352.213 77.4685ZM371.039 112.426H332.367V116.426H371.039V112.426ZM334.29 113.874C330.735 101.485 323.309 91.4394 312.11 83.7716L309.851 87.0721C320.331 94.2481 327.163 103.539 330.445 114.977L334.29 113.874ZM312.12 83.7786C300.923 76.0111 288.069 72.1426 273.627 72.1426V76.1426C287.31 76.1426 299.358 79.7935 309.841 87.0652L312.12 83.7786ZM273.627 72.1426C253.457 72.1426 236.473 79.3939 222.808 93.8631L225.716 96.6096C238.613 82.9538 254.539 76.1426 273.627 76.1426V72.1426ZM222.808 93.8631C209.146 108.328 202.34 126.314 202.34 147.678H206.34C206.34 127.245 212.815 110.269 225.716 96.6096L222.808 93.8631ZM202.34 147.678C202.34 169.137 209.144 187.264 222.798 201.922L225.725 199.195C212.817 185.338 206.34 168.211 206.34 147.678H202.34ZM222.803 201.927C236.467 216.495 253.452 223.799 273.627 223.799V219.799C254.544 219.799 238.619 212.942 225.72 199.19L222.803 201.927ZM273.627 223.799C288.28 223.799 301.294 219.725 312.592 211.554L310.248 208.313C299.671 215.962 287.489 219.799 273.627 219.799V223.799ZM312.595 211.552C323.994 203.28 331.359 192.532 334.602 179.357L330.718 178.401C327.711 190.616 320.916 200.572 310.245 208.315L312.595 211.552ZM332.66 180.879H371.771V176.879H332.66V180.879ZM369.805 178.516C365.694 200.789 354.725 218.915 336.844 232.971L339.316 236.115C357.959 221.46 369.45 202.476 373.738 179.242L369.805 178.516ZM336.845 232.97C319.06 246.93 298.019 253.93 273.627 253.93V257.93C298.844 257.93 320.772 250.672 339.315 236.116L336.845 232.97ZM424.359 224.875L422.923 226.267L422.931 226.275L424.359 224.875ZM402.24 190.451L400.384 191.196L400.389 191.208L402.24 190.451ZM402.24 105.197L400.389 104.441L400.386 104.447L402.24 105.197ZM424.359 70.9199L422.931 69.5204L422.931 69.5205L424.359 70.9199ZM458.051 48.3613L458.822 50.2067L458.834 50.2017L458.051 48.3613ZM544.77 49.5332L543.947 51.3561L543.951 51.3582L544.77 49.5332ZM579.926 76.1934L578.373 77.454L578.379 77.4613L578.385 77.4685L579.926 76.1934ZM597.211 114.426V116.426H599.537L599.188 114.126L597.211 114.426ZM558.539 114.426L556.617 114.977L557.032 116.426H558.539V114.426ZM537.152 85.4219L536.012 87.0652L536.022 87.0721L537.152 85.4219ZM450.434 200.559L448.97 201.922L448.975 201.927L450.434 200.559ZM537.592 209.934L538.764 211.554L538.766 211.552L537.592 209.934ZM558.832 178.879V176.879H557.265L556.89 178.401L558.832 178.879ZM597.943 178.879L599.91 179.242L600.346 176.879H597.943V178.879ZM564.252 234.543L565.487 236.116L565.488 236.115L564.252 234.543ZM499.799 253.93C485.312 253.93 471.663 251.197 458.834 245.74L457.268 249.42C470.611 255.096 484.794 257.93 499.799 257.93V253.93ZM458.834 245.74C445.975 240.27 434.968 232.846 425.788 223.475L422.931 226.275C432.501 236.044 443.955 243.757 457.268 249.42L458.834 245.74ZM425.795 223.483C416.71 214.111 409.472 202.857 404.092 189.694L400.389 191.208C405.946 204.803 413.454 216.498 422.923 226.267L425.795 223.483ZM404.096 189.706C398.825 176.576 396.184 162.572 396.184 147.678H392.184C392.184 163.057 394.913 177.569 400.384 191.196L404.096 189.706ZM396.184 147.678C396.184 132.883 398.824 118.978 404.094 105.947L400.386 104.447C394.914 117.979 392.184 132.395 392.184 147.678H396.184ZM404.092 105.954C409.471 92.7929 416.708 81.5911 425.788 72.3193L422.931 69.5205C413.456 79.1941 405.947 90.8438 400.389 104.441L404.092 105.954ZM425.788 72.3195C434.965 62.9513 445.968 55.5784 458.822 50.2067L457.28 46.516C443.962 52.0817 432.504 59.7479 422.931 69.5204L425.788 72.3195ZM458.834 50.2017C471.663 44.7445 485.312 42.0117 499.799 42.0117V38.0117C484.794 38.0117 470.611 40.8453 457.268 46.5209L458.834 50.2017ZM499.799 42.0117C515.442 42.0117 530.151 45.1289 543.947 51.3561L545.592 47.7103C531.263 41.2422 515.991 38.0117 499.799 38.0117V42.0117ZM543.951 51.3582C557.842 57.585 569.304 66.2845 578.373 77.454L581.478 74.9327C571.993 63.2507 560.017 54.1767 545.588 47.7082L543.951 51.3582ZM578.385 77.4685C587.535 88.525 593.141 100.934 595.234 114.726L599.188 114.126C596.984 99.5971 591.066 86.518 581.467 74.9182L578.385 77.4685ZM597.211 112.426H558.539V116.426H597.211V112.426ZM560.462 113.874C556.907 101.485 549.481 91.4394 538.282 83.7716L536.022 87.0721C546.503 94.2481 553.335 103.539 556.617 114.977L560.462 113.874ZM538.292 83.7786C527.095 76.0111 514.24 72.1426 499.799 72.1426V76.1426C513.482 76.1426 525.53 79.7935 536.012 87.0652L538.292 83.7786ZM499.799 72.1426C479.629 72.1426 462.645 79.3939 448.98 93.8631L451.888 96.6096C464.785 82.9538 480.711 76.1426 499.799 76.1426V72.1426ZM448.98 93.8631C435.318 108.328 428.512 126.314 428.512 147.678H432.512C432.512 127.245 438.987 110.269 451.888 96.6096L448.98 93.8631ZM428.512 147.678C428.512 169.137 435.316 187.264 448.97 201.922L451.897 199.195C438.989 185.338 432.512 168.211 432.512 147.678H428.512ZM448.975 201.927C462.639 216.495 479.624 223.799 499.799 223.799V219.799C480.716 219.799 464.791 212.942 451.892 199.19L448.975 201.927ZM499.799 223.799C514.452 223.799 527.465 219.725 538.764 211.554L536.42 208.313C525.843 215.962 513.661 219.799 499.799 219.799V223.799ZM538.766 211.552C550.166 203.28 557.531 192.532 560.774 179.357L556.89 178.401C553.883 190.616 547.088 200.572 536.417 208.315L538.766 211.552ZM558.832 180.879H597.943V176.879H558.832V180.879ZM595.977 178.516C591.866 200.789 580.897 218.915 563.016 232.971L565.488 236.115C584.131 221.46 595.622 202.476 599.91 179.242L595.977 178.516ZM563.017 232.97C545.232 246.93 524.191 253.93 499.799 253.93V257.93C525.016 257.93 546.944 250.672 565.487 236.116L563.017 232.97Z" fill="#1C95C9" fill-opacity="0.4" mask="url(#path-2-outside-1_214_1130)"/>
</g>
<defs>
<clipPath id="clip0_214_1130">
<rect width="512" height="570" fill="white"/>
</clipPath>
</defs>
</svg>
