<svg width="382" height="216" viewBox="0 0 382 216" fill="none" xmlns="http://www.w3.org/2000/svg">
<g clip-path="url(#clip0_220_1161)">
<mask id="mask0_220_1161" style="mask-type:luminance" maskUnits="userSpaceOnUse" x="-2" y="-2" width="386" height="220">
<path d="M384 -2H-2V218H384V-2Z" fill="white"/>
<path d="M78.2598 215.93C55.7012 215.93 37.0488 209.289 22.3027 196.008C7.55664 182.629 0.183594 165.686 0.183594 145.178H35.0469C35.0469 156.408 39.0508 165.539 47.0586 172.57C55.1641 179.504 65.5645 182.971 78.2598 182.971C90.1738 182.971 99.8906 180.236 107.41 174.768C114.93 169.201 118.689 162.023 118.689 153.234C118.689 148.254 117.371 143.908 114.734 140.197C112.098 136.486 108.533 133.508 104.041 131.262C99.6465 128.918 94.5195 126.867 88.6602 125.109C82.8984 123.352 76.7949 121.643 70.3496 119.982C64.002 118.322 57.6055 116.564 51.1602 114.709C44.8125 112.854 38.709 110.412 32.8496 107.385C27.0879 104.357 21.9609 100.842 17.4688 96.8379C13.0742 92.834 9.55859 87.6582 6.92188 81.3105C4.28516 74.8652 2.9668 67.541 2.9668 59.3379C2.9668 42.0527 9.65625 27.8438 23.0352 16.7109C36.4141 5.57812 53.4062 0.0117188 74.0117 0.0117188C85.7305 0.0117188 96.2773 1.76953 105.652 5.28516C115.125 8.80078 122.791 13.6348 128.65 19.7871C134.607 25.8418 139.148 32.8242 142.273 40.7344C145.398 48.5469 146.961 56.9453 146.961 65.9297H110.926C110.633 56.3594 107.02 48.5469 100.086 42.4922C93.1523 36.3398 84.0703 33.2637 72.8398 33.2637C62.1953 33.2637 53.6016 35.6562 47.0586 40.4414C40.6133 45.1289 37.3906 51.3301 37.3906 59.0449C37.3906 63.7324 38.709 67.7852 41.3457 71.2031C43.9824 74.5234 47.5469 77.209 52.0391 79.2598C56.5312 81.3105 61.6582 83.166 67.4199 84.8262C73.2793 86.4863 79.3828 88.0977 85.7305 89.6602C92.1758 91.2227 98.6211 92.9805 105.066 94.9336C111.512 96.7891 117.615 99.3281 123.377 102.551C129.236 105.676 134.412 109.387 138.904 113.684C143.396 117.883 146.961 123.352 149.598 130.09C152.234 136.828 153.553 144.543 153.553 153.234C153.553 165.148 150.281 175.891 143.738 185.461C137.293 195.031 128.309 202.502 116.785 207.873C105.359 213.244 92.5176 215.93 78.2598 215.93ZM283.045 215.93C268.299 215.93 254.383 213.146 241.297 207.58C228.211 202.014 216.98 194.445 207.605 184.875C198.328 175.305 190.955 163.83 185.486 150.451C180.115 137.072 177.43 122.814 177.43 107.678C177.43 92.6387 180.115 78.4785 185.486 65.1973C190.955 51.8184 198.328 40.3926 207.605 30.9199C216.98 21.3496 228.211 13.8301 241.297 8.36133C254.383 2.79492 268.299 0.0117188 283.045 0.0117188C298.963 0.0117188 313.953 3.18555 328.016 9.5332C342.176 15.8809 353.895 24.7676 363.172 36.1934C372.547 47.5215 378.309 60.2656 380.457 74.4258H341.785C338.367 62.5117 331.238 52.8438 320.398 45.4219C309.559 37.9023 297.107 34.1426 283.045 34.1426C263.416 34.1426 246.961 41.1738 233.68 55.2363C220.398 69.2988 213.758 86.7793 213.758 107.678C213.758 128.674 220.398 146.301 233.68 160.559C246.961 174.719 263.416 181.799 283.045 181.799C297.303 181.799 309.9 177.844 320.838 169.934C331.873 161.926 338.953 151.574 342.078 138.879H381.189C376.99 161.633 365.76 180.188 347.498 194.543C329.334 208.801 307.85 215.93 283.045 215.93Z" fill="black"/>
</mask>
<g mask="url(#mask0_220_1161)">
<path d="M22.3027 196.008L20.9588 197.489L20.9643 197.494L22.3027 196.008ZM0.183598 145.178V143.178H-1.81641V145.178H0.183598ZM35.0469 145.178H37.0469V143.178H35.0469V145.178ZM47.0586 172.57L45.739 174.073L45.7487 174.082L45.7585 174.09L47.0586 172.57ZM107.41 174.768L108.586 176.385L108.593 176.38L108.6 176.375L107.41 174.768ZM104.041 131.262L103.1 133.026L103.123 133.039L103.147 133.051L104.041 131.262ZM88.6602 125.109L88.0765 127.022L88.0855 127.025L88.6602 125.109ZM70.3496 119.982L69.8436 121.917L69.8507 121.919L70.3496 119.982ZM51.1602 114.709L50.599 116.629L50.6069 116.631L51.1602 114.709ZM32.8496 107.385L31.9193 109.155L31.9316 109.162L32.8496 107.385ZM17.4688 96.8379L16.1218 98.3163L16.1298 98.3236L16.138 98.3309L17.4688 96.8379ZM6.92188 81.3105L5.07075 82.0678L5.07488 82.0778L6.92188 81.3105ZM105.652 5.28516L104.95 7.15783L104.956 7.16019L105.652 5.28516ZM128.65 19.7871L127.202 21.1664L127.213 21.1782L127.225 21.1898L128.65 19.7871ZM142.273 40.7344L140.413 41.4692L140.416 41.4772L142.273 40.7344ZM146.961 65.9297V67.9297H148.961V65.9297H146.961ZM110.926 65.9297L108.927 65.9909L108.986 67.9297H110.926V65.9297ZM100.086 42.4922L98.7585 43.9882L98.7645 43.9934L98.7704 43.9987L100.086 42.4922ZM47.0586 40.4414L48.2349 42.0589L48.2392 42.0557L47.0586 40.4414ZM41.3457 71.2031L39.7621 72.4247L39.7707 72.4359L39.7795 72.4469L41.3457 71.2031ZM67.4199 84.8262L66.8662 86.748L66.8747 86.7504L67.4199 84.8262ZM85.7305 89.6602L85.2524 91.6022L85.2593 91.6039L85.7305 89.6602ZM105.066 94.9336L104.486 96.8476L104.5 96.8517L104.513 96.8555L105.066 94.9336ZM123.377 102.551L122.401 104.296L122.418 104.306L122.436 104.315L123.377 102.551ZM138.904 113.684L137.522 115.129L137.53 115.137L137.539 115.145L138.904 113.684ZM143.738 185.461L142.087 184.332L142.079 184.344L143.738 185.461ZM116.785 207.873L115.94 206.06L115.934 206.063L116.785 207.873ZM78.2598 213.93C56.1231 213.93 37.9695 207.427 23.6412 194.522L20.9643 197.494C36.1281 211.151 55.2792 217.93 78.2598 217.93V213.93ZM23.6466 194.527C9.33238 181.54 2.18359 165.141 2.18359 145.178H-1.81641C-1.81641 166.231 5.7808 183.718 20.9588 197.489L23.6466 194.527ZM0.183598 147.178H35.0469V143.178H0.183598V147.178ZM33.0469 145.178C33.0469 156.949 37.2729 166.64 45.739 174.073L48.3782 171.067C40.8286 164.439 37.0469 155.868 37.0469 145.178H33.0469ZM45.7585 174.09C54.2925 181.39 65.1828 184.971 78.2598 184.971V180.971C65.9461 180.971 56.0356 177.618 48.3587 171.051L45.7585 174.09ZM78.2598 184.971C90.4772 184.971 100.64 182.164 108.586 176.385L106.234 173.15C99.1414 178.308 89.8704 180.971 78.2598 180.971V184.971ZM108.6 176.375C116.591 170.46 120.689 162.704 120.689 153.234H116.689C116.689 161.343 113.269 167.942 106.22 173.16L108.6 176.375ZM120.689 153.234C120.689 147.88 119.265 143.12 116.365 139.039L113.104 141.356C115.478 144.696 116.689 148.628 116.689 153.234H120.689ZM116.365 139.039C113.519 135.034 109.69 131.85 104.935 129.473L103.147 133.051C107.376 135.165 110.676 137.939 113.104 141.356L116.365 139.039ZM104.982 129.497C100.448 127.079 95.1936 124.981 89.2349 123.194L88.0855 127.025C93.8455 128.753 98.8451 130.757 103.1 133.026L104.982 129.497ZM89.2438 123.196C83.4513 121.429 77.3193 119.712 70.8485 118.046L69.8507 121.919C76.2705 123.573 82.3456 125.274 88.0765 127.022L89.2438 123.196ZM70.8557 118.048C64.5242 116.392 58.1434 114.638 51.7134 112.787L50.6069 116.631C57.0675 118.491 63.4798 120.253 69.8436 121.917L70.8557 118.048ZM51.7213 112.789C45.4966 110.97 39.5126 108.576 33.7676 105.608L31.9316 109.162C37.9054 112.248 44.1284 114.737 50.599 116.629L51.7213 112.789ZM33.7799 105.614C28.1508 102.657 23.1605 99.2319 18.7995 95.3449L16.138 98.3309C20.7613 102.452 26.0249 106.058 31.9193 109.155L33.7799 105.614ZM18.8157 95.3595C14.6694 91.5817 11.3106 86.6623 8.76887 80.5433L5.07488 82.0778C7.8066 88.6541 11.4791 94.0863 16.1218 98.3163L18.8157 95.3595ZM8.77297 80.5533C6.25044 74.3871 4.9668 67.3268 4.9668 59.3379H0.966801C0.966801 67.7553 2.31985 75.3434 5.07075 82.0678L8.77297 80.5533ZM4.9668 59.3379C4.9668 42.6516 11.3885 29.0042 24.3144 18.2483L21.7559 15.1736C7.92401 26.6833 0.966801 41.4539 0.966801 59.3379H4.9668ZM24.3144 18.2483C37.2705 7.46732 53.7837 2.01172 74.0117 2.01172V-1.98828C53.0288 -1.98828 35.5576 3.68893 21.7559 15.1736L24.3144 18.2483ZM74.0117 2.01172C85.5307 2.01172 95.8344 3.73943 104.95 7.15783L106.355 3.4125C96.7203 -0.200351 85.9302 -1.98828 74.0117 -1.98828V2.01172ZM104.956 7.16019C114.197 10.5898 121.589 15.2723 127.202 21.1664L130.099 18.4078C123.993 11.9972 116.053 7.01176 106.348 3.41013L104.956 7.16019ZM127.225 21.1898C132.993 27.053 137.387 33.8082 140.413 41.4692L144.134 39.9995C140.91 31.8402 136.221 24.6306 130.076 18.3844L127.225 21.1898ZM140.416 41.4772C143.441 49.0378 144.961 57.1823 144.961 65.9297H148.961C148.961 56.7083 147.356 48.056 144.13 39.9916L140.416 41.4772ZM146.961 63.9297H110.926V67.9297H146.961V63.9297ZM112.925 65.8685C112.616 55.7675 108.773 47.4224 101.401 40.9857L98.7704 43.9987C105.267 49.6713 108.65 56.9512 108.927 65.9909L112.925 65.8685ZM101.413 40.9962C94.0401 34.4537 84.4511 31.2637 72.8398 31.2637V35.2637C83.6896 35.2637 92.2646 38.226 98.7585 43.9882L101.413 40.9962ZM72.8398 31.2637C61.9031 31.2637 52.8568 33.7231 45.878 38.8271L48.2392 42.0557C54.3463 37.5894 62.4875 35.2637 72.8398 35.2637V31.2637ZM45.8823 38.8239C38.9396 43.8731 35.3906 50.6657 35.3906 59.0449H39.3906C39.3906 51.9945 42.2869 46.3847 48.2349 42.0589L45.8823 38.8239ZM35.3906 59.0449C35.3906 64.1341 36.8318 68.6261 39.7621 72.4247L42.9293 69.9815C40.5862 66.9442 39.3906 63.3307 39.3906 59.0449H35.3906ZM39.7795 72.4469C42.6425 76.0522 46.4764 78.9188 51.2085 81.0791L52.8696 77.4404C48.6174 75.4991 45.3223 72.9947 42.9119 69.9594L39.7795 72.4469ZM51.2085 81.0791C55.8069 83.1784 61.0291 85.0661 66.8662 86.748L67.9737 82.9044C62.2873 81.2659 57.2556 79.4427 52.8696 77.4404L51.2085 81.0791ZM66.8747 86.7504C72.7579 88.4173 78.8839 90.0345 85.2524 91.6022L86.2085 87.7181C79.8817 86.1608 73.8007 84.5553 67.9651 82.9019L66.8747 86.7504ZM85.2593 91.6039C91.6675 93.1574 98.0765 94.9053 104.486 96.8476L105.646 93.0195C99.1657 91.0557 92.6841 89.288 86.2017 87.7165L85.2593 91.6039ZM104.513 96.8555C110.813 98.6693 116.775 101.15 122.401 104.296L124.353 100.805C118.456 97.5066 112.21 94.9088 105.62 93.0116L104.513 96.8555ZM122.436 104.315C128.145 107.36 133.17 110.966 137.522 115.129L140.287 112.238C135.654 107.807 130.328 103.991 124.318 100.786L122.436 104.315ZM137.539 115.145C141.777 119.107 145.188 124.31 147.735 130.819L151.46 129.361C148.734 122.393 145.016 116.659 140.27 112.223L137.539 115.145ZM147.735 130.819C150.265 137.283 151.553 144.743 151.553 153.234H155.553C155.553 144.343 154.204 136.373 151.46 129.361L147.735 130.819ZM151.553 153.234C151.553 164.757 148.396 175.104 142.087 184.332L145.389 186.59C152.166 176.677 155.553 165.539 155.553 153.234H151.553ZM142.079 184.344C135.857 193.582 127.169 200.827 115.94 206.06L117.63 209.686C129.448 204.177 138.728 196.48 145.397 186.578L142.079 184.344ZM115.934 206.063C104.807 211.294 92.2616 213.93 78.2598 213.93V217.93C92.7735 217.93 105.912 215.195 117.636 209.683L115.934 206.063ZM207.605 184.875L206.169 186.267L206.177 186.275L207.605 184.875ZM185.486 150.451L183.63 151.196L183.635 151.208L185.486 150.451ZM185.486 65.1973L183.635 64.4405L183.632 64.4474L185.486 65.1973ZM241.297 8.36133L242.068 10.2067L242.08 10.2017L241.297 8.36133ZM328.016 9.5332L327.193 11.3561L327.198 11.3582L328.016 9.5332ZM363.172 36.1934L361.619 37.454L361.625 37.4613L361.631 37.4685L363.172 36.1934ZM380.457 74.4258V76.4258H382.783L382.434 74.1258L380.457 74.4258ZM341.785 74.4258L339.863 74.9773L340.278 76.4258H341.785V74.4258ZM320.398 45.4219L319.258 47.0652L319.269 47.0721L320.398 45.4219ZM233.68 160.559L232.216 161.922L232.221 161.927L233.68 160.559ZM320.838 169.934L322.01 171.554L322.013 171.552L320.838 169.934ZM342.078 138.879V136.879H340.511L340.136 138.401L342.078 138.879ZM381.189 138.879L383.156 139.242L383.592 136.879H381.189V138.879ZM347.498 194.543L348.733 196.116L348.734 196.115L347.498 194.543ZM283.045 213.93C268.558 213.93 254.909 211.197 242.08 205.74L240.514 209.42C253.857 215.096 268.04 217.93 283.045 217.93V213.93ZM242.08 205.74C229.221 200.27 218.214 192.846 209.034 183.475L206.177 186.275C215.747 196.044 227.201 203.757 240.514 209.42L242.08 205.74ZM209.041 183.483C199.956 174.111 192.718 162.857 187.338 149.694L183.635 151.208C189.192 164.803 196.7 176.498 206.169 186.267L209.041 183.483ZM187.342 149.706C182.071 136.576 179.43 122.572 179.43 107.678H175.43C175.43 123.057 178.159 137.569 183.63 151.196L187.342 149.706ZM179.43 107.678C179.43 92.8827 182.07 78.9783 187.34 65.9471L183.632 64.4474C178.16 77.9787 175.43 92.3947 175.43 107.678H179.43ZM187.338 65.954C192.717 52.7929 199.954 41.5911 209.034 32.3193L206.177 29.5204C196.702 39.194 189.193 50.8438 183.635 64.4405L187.338 65.954ZM209.034 32.3193C218.211 22.9511 229.214 15.5784 242.068 10.2067L240.526 6.51599C227.208 12.0817 215.75 19.7479 206.177 29.5204L209.034 32.3193ZM242.08 10.2017C254.909 4.74455 268.558 2.01172 283.045 2.01172V-1.98828C268.04 -1.98828 253.857 0.845294 240.514 6.52091L242.08 10.2017ZM283.045 2.01172C298.688 2.01172 313.397 5.12892 327.193 11.3561L328.838 7.71031C314.509 1.24218 299.237 -1.98828 283.045 -1.98828V2.01172ZM327.198 11.3582C341.088 17.585 352.55 26.2845 361.619 37.454L364.725 34.9327C355.239 23.2507 343.264 14.1767 328.834 7.70818L327.198 11.3582ZM361.631 37.4685C370.781 48.525 376.387 60.9342 378.48 74.7258L382.434 74.1258C380.23 59.5971 374.312 46.518 364.713 34.9182L361.631 37.4685ZM380.457 72.4258H341.785V76.4258H380.457V72.4258ZM343.708 73.8743C340.153 61.4848 332.727 51.4394 321.528 43.7716L319.269 47.0721C329.749 54.2481 336.581 63.5386 339.863 74.9773L343.708 73.8743ZM321.538 43.7786C310.341 36.0111 297.487 32.1426 283.045 32.1426V36.1426C296.728 36.1426 308.776 39.7935 319.258 47.0652L321.538 43.7786ZM283.045 32.1426C262.875 32.1426 245.891 39.3939 232.226 53.8631L235.134 56.6096C248.031 42.9538 263.957 36.1426 283.045 36.1426V32.1426ZM232.226 53.8631C218.564 68.3283 211.758 86.3136 211.758 107.678H215.758C215.758 87.245 222.233 70.2694 235.134 56.6096L232.226 53.8631ZM211.758 107.678C211.758 129.137 218.562 147.264 232.216 161.922L235.143 159.195C222.235 145.338 215.758 128.211 215.758 107.678H211.758ZM232.221 161.927C245.885 176.495 262.87 183.799 283.045 183.799V179.799C263.962 179.799 248.037 172.942 235.138 159.19L232.221 161.927ZM283.045 183.799C297.698 183.799 310.712 179.725 322.01 171.554L319.666 168.313C309.089 175.962 296.907 179.799 283.045 179.799V183.799ZM322.013 171.552C333.412 163.28 340.777 152.532 344.02 139.357L340.136 138.401C337.129 150.616 330.334 160.572 319.663 168.315L322.013 171.552ZM342.078 140.879H381.189V136.879H342.078V140.879ZM379.223 138.516C375.112 160.789 364.143 178.915 346.262 192.971L348.734 196.115C367.377 181.46 378.868 162.476 383.156 139.242L379.223 138.516ZM346.263 192.97C328.478 206.93 307.437 213.93 283.045 213.93V217.93C308.262 217.93 330.19 210.672 348.733 196.116L346.263 192.97Z" fill="#1C95C9" fill-opacity="0.4"/>
</g>
</g>
<defs>
<clipPath id="clip0_220_1161">
<rect width="382" height="216" fill="white"/>
</clipPath>
</defs>
</svg>
