<svg width="430" height="216" viewBox="0 0 430 216" fill="none" xmlns="http://www.w3.org/2000/svg">
<g clip-path="url(#clip0_220_1154)">
<mask id="mask0_220_1154" style="mask-type:luminance" maskUnits="userSpaceOnUse" x="-2" y="-2" width="435" height="220">
<path d="M433 -2H-2V218H433V-2Z" fill="white"/>
<path d="M105.627 215.93C90.8809 215.93 76.9648 213.146 63.8789 207.58C50.793 202.014 39.5625 194.445 30.1875 184.875C20.9102 175.305 13.5371 163.83 8.06836 150.451C2.69727 137.072 0.0117188 122.814 0.0117188 107.678C0.0117188 92.6387 2.69727 78.4785 8.06836 65.1973C13.5371 51.8184 20.9102 40.3926 30.1875 30.9199C39.5625 21.3496 50.793 13.8301 63.8789 8.36133C76.9648 2.79492 90.8809 0.0117188 105.627 0.0117188C121.545 0.0117188 136.535 3.18555 150.598 9.5332C164.758 15.8809 176.477 24.7676 185.754 36.1934C195.129 47.5215 200.891 60.2656 203.039 74.4258H164.367C160.949 62.5117 153.82 52.8438 142.98 45.4219C132.141 37.9023 119.689 34.1426 105.627 34.1426C85.998 34.1426 69.543 41.1738 56.2617 55.2363C42.9805 69.2988 36.3398 86.7793 36.3398 107.678C36.3398 128.674 42.9805 146.301 56.2617 160.559C69.543 174.719 85.998 181.799 105.627 181.799C119.885 181.799 132.482 177.844 143.42 169.934C154.455 161.926 161.535 151.574 164.66 138.879H203.771C199.572 161.633 188.342 180.188 170.08 194.543C151.916 208.801 130.432 215.93 105.627 215.93ZM331.799 215.93C317.053 215.93 303.137 213.146 290.051 207.58C276.965 202.014 265.734 194.445 256.359 184.875C247.082 175.305 239.709 163.83 234.24 150.451C228.869 137.072 226.184 122.814 226.184 107.678C226.184 92.6387 228.869 78.4785 234.24 65.1973C239.709 51.8184 247.082 40.3926 256.359 30.9199C265.734 21.3496 276.965 13.8301 290.051 8.36133C303.137 2.79492 317.053 0.0117188 331.799 0.0117188C347.717 0.0117188 362.707 3.18555 376.77 9.5332C390.93 15.8809 402.648 24.7676 411.926 36.1934C421.301 47.5215 427.062 60.2656 429.211 74.4258H390.539C387.121 62.5117 379.992 52.8438 369.152 45.4219C358.312 37.9023 345.861 34.1426 331.799 34.1426C312.17 34.1426 295.715 41.1738 282.434 55.2363C269.152 69.2988 262.512 86.7793 262.512 107.678C262.512 128.674 269.152 146.301 282.434 160.559C295.715 174.719 312.17 181.799 331.799 181.799C346.057 181.799 358.654 177.844 369.592 169.934C380.627 161.926 387.707 151.574 390.832 138.879H429.943C425.744 161.633 414.514 180.188 396.252 194.543C378.088 208.801 356.604 215.93 331.799 215.93Z" fill="black"/>
</mask>
<g mask="url(#mask0_220_1154)">
<path d="M30.1875 184.875L28.7515 186.267L28.7588 186.275L30.1875 184.875ZM8.06836 150.451L6.21231 151.196L6.21705 151.208L8.06836 150.451ZM8.06836 65.1973L6.21704 64.4405L6.21424 64.4474L8.06836 65.1973ZM63.8789 8.36133L64.6501 10.2067L64.6618 10.2017L63.8789 8.36133ZM150.598 9.5332L149.775 11.3561L149.78 11.3582L150.598 9.5332ZM185.754 36.1934L184.201 37.454L184.207 37.4613L184.213 37.4685L185.754 36.1934ZM203.039 74.4258V76.4258H205.365L205.016 74.1258L203.039 74.4258ZM164.367 74.4258L162.445 74.9773L162.86 76.4258H164.367V74.4258ZM142.98 45.4219L141.84 47.0652L141.851 47.0721L142.98 45.4219ZM56.2617 160.559L54.7983 161.922L54.803 161.927L56.2617 160.559ZM143.42 169.934L144.592 171.554L144.595 171.552L143.42 169.934ZM164.66 138.879V136.879H163.093L162.718 138.401L164.66 138.879ZM203.771 138.879L205.738 139.242L206.174 136.879H203.771V138.879ZM170.08 194.543L171.315 196.116L171.316 196.115L170.08 194.543ZM105.627 213.93C91.1397 213.93 77.491 211.197 64.6618 205.74L63.096 209.42C76.4387 215.096 90.622 217.93 105.627 217.93V213.93ZM64.6618 205.74C51.8029 200.27 40.7959 192.846 31.6162 183.475L28.7588 186.275C38.3291 196.044 49.783 203.757 63.096 209.42L64.6618 205.74ZM31.6235 183.483C22.5384 174.111 15.3 162.857 9.91967 149.694L6.21705 151.208C11.7742 164.803 19.2819 176.498 28.7515 186.267L31.6235 183.483ZM9.92438 149.706C4.6531 136.576 2.01172 122.572 2.01172 107.678H-1.98828C-1.98828 123.057 0.741403 137.569 6.21231 151.196L9.92438 149.706ZM2.01172 107.678C2.01172 92.8827 4.65249 78.9783 9.92248 65.9471L6.21424 64.4474C0.742043 77.9787 -1.98828 92.3947 -1.98828 107.678H2.01172ZM9.91967 65.954C15.2994 52.7929 22.5358 41.5911 31.6164 32.3193L28.7588 29.5204C19.2847 39.194 11.7748 50.8438 6.21704 64.4405L9.91967 65.954ZM31.6164 32.3193C40.7934 22.9511 51.7962 15.5784 64.6501 10.2067L63.1077 6.51599C49.7897 12.0817 38.3318 19.7479 28.7588 29.5204L31.6164 32.3193ZM64.6618 10.2017C77.491 4.74455 91.1397 2.01172 105.627 2.01172V-1.98828C90.622 -1.98828 76.4387 0.845294 63.096 6.52091L64.6618 10.2017ZM105.627 2.01172C121.27 2.01172 135.979 5.12892 149.775 11.3561L151.42 7.71031C137.091 1.24218 121.819 -1.98828 105.627 -1.98828V2.01172ZM149.78 11.3582C163.67 17.585 175.132 26.2845 184.201 37.454L187.307 34.9327C177.821 23.2507 165.846 14.1767 151.416 7.70818L149.78 11.3582ZM184.213 37.4685C193.363 48.525 198.969 60.9342 201.062 74.7258L205.016 74.1258C202.812 59.5971 196.894 46.518 187.295 34.9182L184.213 37.4685ZM203.039 72.4258H164.367V76.4258H203.039V72.4258ZM166.29 73.8743C162.735 61.4848 155.309 51.4394 144.11 43.7716L141.851 47.0721C152.331 54.2481 159.163 63.5386 162.445 74.9773L166.29 73.8743ZM144.12 43.7786C132.923 36.0111 120.069 32.1426 105.627 32.1426V36.1426C119.31 36.1426 131.358 39.7935 141.841 47.0652L144.12 43.7786ZM105.627 32.1426C85.457 32.1426 68.473 39.3939 54.8077 53.8631L57.7157 56.6096C70.6129 42.9538 86.5391 36.1426 105.627 36.1426V32.1426ZM54.8077 53.8631C41.1461 68.3283 34.3398 86.3136 34.3398 107.678H38.3398C38.3398 87.245 44.8148 70.2694 57.7157 56.6096L54.8077 53.8631ZM34.3398 107.678C34.3398 129.137 41.144 147.264 54.7983 161.922L57.7252 159.195C44.8169 145.338 38.3398 128.211 38.3398 107.678H34.3398ZM54.803 161.927C68.467 176.495 85.4523 183.799 105.627 183.799V179.799C86.5438 179.799 70.6189 172.942 57.7205 159.19L54.803 161.927ZM105.627 183.799C120.28 183.799 133.294 179.725 144.592 171.554L142.248 168.313C131.671 175.962 119.489 179.799 105.627 179.799V183.799ZM144.595 171.552C155.994 163.28 163.359 152.532 166.602 139.357L162.718 138.401C159.711 150.616 152.916 160.572 142.245 168.315L144.595 171.552ZM164.66 140.879H203.771V136.879H164.66V140.879ZM201.805 138.516C197.694 160.789 186.725 178.915 168.844 192.971L171.316 196.115C189.959 181.46 201.45 162.476 205.738 139.242L201.805 138.516ZM168.845 192.97C151.06 206.93 130.019 213.93 105.627 213.93V217.93C130.844 217.93 152.772 210.672 171.315 196.116L168.845 192.97ZM256.359 184.875L254.923 186.267L254.931 186.275L256.359 184.875ZM234.24 150.451L232.384 151.196L232.389 151.208L234.24 150.451ZM234.24 65.1973L232.389 64.4405L232.386 64.4474L234.24 65.1973ZM290.051 8.36133L290.822 10.2067L290.834 10.2017L290.051 8.36133ZM376.77 9.5332L375.947 11.3561L375.951 11.3582L376.77 9.5332ZM411.926 36.1934L410.373 37.454L410.379 37.4613L410.385 37.4685L411.926 36.1934ZM429.211 74.4258V76.4258H431.537L431.188 74.1258L429.211 74.4258ZM390.539 74.4258L388.617 74.9773L389.032 76.4258H390.539V74.4258ZM369.152 45.4219L368.012 47.0652L368.022 47.0721L369.152 45.4219ZM282.434 160.559L280.97 161.922L280.975 161.927L282.434 160.559ZM369.592 169.934L370.764 171.554L370.766 171.552L369.592 169.934ZM390.832 138.879V136.879H389.265L388.89 138.401L390.832 138.879ZM429.943 138.879L431.91 139.242L432.346 136.879H429.943V138.879ZM396.252 194.543L397.487 196.116L397.488 196.115L396.252 194.543ZM331.799 213.93C317.312 213.93 303.663 211.197 290.834 205.74L289.268 209.42C302.611 215.096 316.794 217.93 331.799 217.93V213.93ZM290.834 205.74C277.975 200.27 266.968 192.846 257.788 183.475L254.931 186.275C264.501 196.044 275.955 203.757 289.268 209.42L290.834 205.74ZM257.795 183.483C248.71 174.111 241.472 162.857 236.092 149.694L232.389 151.208C237.946 164.803 245.454 176.498 254.923 186.267L257.795 183.483ZM236.096 149.706C230.825 136.576 228.184 122.572 228.184 107.678H224.184C224.184 123.057 226.913 137.569 232.384 151.196L236.096 149.706ZM228.184 107.678C228.184 92.8827 230.824 78.9783 236.094 65.9471L232.386 64.4474C226.914 77.9787 224.184 92.3947 224.184 107.678H228.184ZM236.092 65.954C241.471 52.7929 248.708 41.5911 257.788 32.3193L254.931 29.5204C245.456 39.194 237.947 50.8438 232.389 64.4405L236.092 65.954ZM257.788 32.3193C266.965 22.9511 277.968 15.5784 290.822 10.2067L289.28 6.51599C275.962 12.0817 264.504 19.7479 254.931 29.5204L257.788 32.3193ZM290.834 10.2017C303.663 4.74455 317.312 2.01172 331.799 2.01172V-1.98828C316.794 -1.98828 302.611 0.845294 289.268 6.52091L290.834 10.2017ZM331.799 2.01172C347.442 2.01172 362.151 5.12892 375.947 11.3561L377.592 7.71031C363.263 1.24218 347.991 -1.98828 331.799 -1.98828V2.01172ZM375.951 11.3582C389.842 17.585 401.304 26.2845 410.373 37.454L413.478 34.9327C403.993 23.2507 392.017 14.1767 377.588 7.70818L375.951 11.3582ZM410.385 37.4685C419.535 48.525 425.141 60.9342 427.234 74.7258L431.188 74.1258C428.984 59.5971 423.066 46.518 413.467 34.9182L410.385 37.4685ZM429.211 72.4258H390.539V76.4258H429.211V72.4258ZM392.462 73.8743C388.907 61.4848 381.481 51.4394 370.282 43.7716L368.022 47.0721C378.503 54.2481 385.335 63.5386 388.617 74.9773L392.462 73.8743ZM370.292 43.7786C359.095 36.0111 346.24 32.1426 331.799 32.1426V36.1426C345.482 36.1426 357.53 39.7935 368.012 47.0652L370.292 43.7786ZM331.799 32.1426C311.629 32.1426 294.645 39.3939 280.98 53.8631L283.888 56.6096C296.785 42.9538 312.711 36.1426 331.799 36.1426V32.1426ZM280.98 53.8631C267.318 68.3283 260.512 86.3136 260.512 107.678H264.512C264.512 87.245 270.987 70.2694 283.888 56.6096L280.98 53.8631ZM260.512 107.678C260.512 129.137 267.316 147.264 280.97 161.922L283.897 159.195C270.989 145.338 264.512 128.211 264.512 107.678H260.512ZM280.975 161.927C294.639 176.495 311.624 183.799 331.799 183.799V179.799C312.716 179.799 296.791 172.942 283.892 159.19L280.975 161.927ZM331.799 183.799C346.452 183.799 359.465 179.725 370.764 171.554L368.42 168.313C357.843 175.962 345.661 179.799 331.799 179.799V183.799ZM370.766 171.552C382.166 163.28 389.531 152.532 392.774 139.357L388.89 138.401C385.883 150.616 379.088 160.572 368.417 168.315L370.766 171.552ZM390.832 140.879H429.943V136.879H390.832V140.879ZM427.977 138.516C423.866 160.789 412.897 178.915 395.016 192.971L397.488 196.115C416.131 181.46 427.622 162.476 431.91 139.242L427.977 138.516ZM395.017 192.97C377.232 206.93 356.191 213.93 331.799 213.93V217.93C357.016 217.93 378.944 210.672 397.487 196.116L395.017 192.97Z" fill="#1C95C9" fill-opacity="0.4"/>
</g>
</g>
<defs>
<clipPath id="clip0_220_1154">
<rect width="430" height="216" fill="white"/>
</clipPath>
</defs>
</svg>
