<svg width="44" height="45" viewBox="0 0 44 45" fill="none" xmlns="http://www.w3.org/2000/svg">
<circle cx="22" cy="22.8857" r="21" stroke="white" stroke-width="2"/>
<path d="M31.4499 15.1659C30.6426 15.6443 29.7601 15.9823 28.8399 16.1659C28.0579 15.3457 26.9731 14.8829 25.8399 14.8859C23.6075 14.8691 21.7782 16.6537 21.7399 18.8858C21.7408 19.1957 21.7777 19.5045 21.8499 19.8059C18.5621 19.6507 15.4915 18.119 13.3899 15.5859C13.0304 16.1917 12.8372 16.8816 12.8299 17.5859C12.83 18.944 13.5191 20.2092 14.6599 20.9459C14.0084 20.9247 13.3711 20.75 12.7999 20.4359C12.7999 20.4359 12.7999 20.4359 12.7999 20.4859C12.7934 22.4364 14.1747 24.116 16.0899 24.4859C15.4862 24.6468 14.8541 24.6707 14.24 24.5559C14.7921 26.2081 16.3281 27.331 18.0699 27.3559C16.6198 28.4836 14.8369 29.099 13 29.1059C12.6658 29.1056 12.3318 29.0856 12 29.046C13.8819 30.2364 16.0632 30.8676 18.29 30.8659C24.6402 30.982 29.8821 25.9281 29.9981 19.5779C29.9994 19.5106 30 19.4433 30 19.3759C30 19.2026 30 19.0292 30 18.8559C30.7838 18.2815 31.4607 17.5742 32.0001 16.7659C31.2493 17.0946 30.454 17.3102 29.64 17.4059C30.4961 16.9048 31.1397 16.1082 31.4499 15.1659Z" fill="white"/>
</svg>
