<svg width="24" height="24" viewBox="0 0 24 24" fill="none" xmlns="http://www.w3.org/2000/svg">
<path d="M23.5 12C23.5 18.3513 18.3513 23.5 12 23.5C5.64873 23.5 0.5 18.3513 0.5 12C0.5 5.64873 5.64873 0.5 12 0.5C18.3513 0.5 23.5 5.64873 23.5 12Z" stroke="url(#paint0_radial_179_772)"/>
<path d="M12.2168 17.7156L12.2174 17.715C12.7084 17.2863 13.1857 16.8793 13.6154 16.5129C13.6897 16.4496 13.7625 16.3875 13.8338 16.3266C13.8338 16.3266 13.8338 16.3266 13.8338 16.3266L13.845 16.3171C15.2774 15.0941 16.4681 14.0774 17.2898 13.0878C18.1916 12 18.5784 11.0101 18.5784 9.96006V9.95149L18.5785 9.95149C18.5954 8.96538 18.2401 8.00915 17.5834 7.27339C17.2718 6.93359 16.8925 6.6628 16.4698 6.47847C16.0463 6.29375 15.5887 6.19998 15.1267 6.20321L15.1211 6.20324L15.1211 6.20321C14.4276 6.2003 13.7539 6.4338 13.2111 6.8652L13.2077 6.86791L13.2076 6.8679C12.902 7.10643 12.6322 7.38759 12.4065 7.70277L11.9989 8.27194L11.5927 7.70169C11.3683 7.38657 11.099 7.10594 10.7934 6.86871L10.7889 6.86522L10.7889 6.8652C10.246 6.4338 9.57235 6.2003 8.87894 6.20321L8.87351 6.20324L8.87351 6.20321C8.41116 6.20013 7.9533 6.29399 7.52946 6.47874C7.10662 6.66305 6.727 6.93375 6.41498 7.27343C5.75895 8.00937 5.40421 8.96548 5.4215 9.95129L5.42166 9.96006H5.42158C5.42158 11.01 5.8083 11.9998 6.70995 13.0875L12.2168 17.7156ZM12.2168 17.7156C12.1568 17.7682 12.0798 17.7971 12 17.7971C11.9202 17.7971 11.8432 17.7682 11.7832 17.7156L11.7826 17.715M12.2168 17.7156L11.7826 17.715M11.7826 17.715C11.2916 17.2862 10.8142 16.8792 10.3846 16.5129M11.7826 17.715L10.3846 16.5129M10.3846 16.5129C10.3103 16.4495 10.2374 16.3874 10.1662 16.3266M10.3846 16.5129L10.1662 16.3266M10.1662 16.3266L9.84164 16.7068M10.1662 16.3266L9.84164 16.7068M9.84164 16.7068L10.1669 16.3272C10.1276 16.2936 10.0885 16.2601 10.0496 16.2268M9.84164 16.7068L10.0496 16.2268M10.0496 16.2268C8.6674 15.0429 7.51133 14.0527 6.71 13.0876L10.0496 16.2268Z" stroke="url(#paint1_radial_179_772)"/>
<defs>
<radialGradient id="paint0_radial_179_772" cx="0" cy="0" r="1" gradientUnits="userSpaceOnUse" gradientTransform="translate(12 12) rotate(90) scale(12)">
<stop stop-color="#194F97"/>
<stop offset="1" stop-color="#081A31"/>
</radialGradient>
<radialGradient id="paint1_radial_179_772" cx="0" cy="0" r="1" gradientUnits="userSpaceOnUse" gradientTransform="translate(12 12.0001) rotate(90) scale(6.297 7.07909)">
<stop stop-color="#194F97"/>
<stop offset="1" stop-color="#081A31"/>
</radialGradient>
</defs>
</svg>
