<svg width="402" height="329" viewBox="0 0 402 329" fill="none" xmlns="http://www.w3.org/2000/svg">
<path d="M329.794 246.747L282.057 246.749C269.88 265.708 253.649 281.756 234.57 293.761H329.794V329L401.08 270.26L329.794 211.508V246.747Z" fill="white"/>
<path d="M154.431 293.716C225.398 293.231 282.793 235.589 282.793 164.505C282.793 97.0888 231.158 41.7875 165.289 35.8434V0L94.7865 58.752L165.289 117.492V83.4403C205.044 89.2035 235.791 123.179 235.791 164.505C235.791 209.855 198.888 246.758 153.538 246.758H0V293.76H154.484C154.46 293.746 154.453 293.73 154.431 293.716Z" fill="white"/>
<path d="M96.1556 223.257C80.8551 208.311 71.2848 187.53 71.2848 164.505C71.2848 137.195 84.811 113.12 105.364 98.1525L68.4388 67.3853C41.4255 91.0756 24.2832 125.753 24.2832 164.505C24.2832 185.738 29.7354 205.585 38.8075 223.257H96.1556Z" fill="white"/>
</svg>
