<svg width="22" height="21" viewBox="0 0 22 21" fill="none" xmlns="http://www.w3.org/2000/svg">
<g clip-path="url(#clip0_112_832)">
<path d="M3.67312 21H18.3265C19.8626 21 21.1109 19.7517 21.1109 18.2155V4.33998C21.1109 2.80387 19.8626 1.55553 18.3265 1.55553H17.222V0.777763C17.222 0.349981 16.872 0 16.4442 0C16.0164 0 15.6664 0.349981 15.6664 0.777763V1.55553H6.33315V0.777763C6.33315 0.349981 5.9831 0 5.55532 0C5.12753 0 4.77755 0.349981 4.77755 0.777763V1.55553H3.67312C2.13702 1.55553 0.888672 2.80387 0.888672 4.33998V18.2155C0.888672 19.7517 2.13702 21 3.67312 21ZM2.44426 4.33998C2.44426 3.66333 2.99648 3.11112 3.67312 3.11112H4.77755V3.88888C4.77755 4.31666 5.12753 4.66665 5.55532 4.66665C5.9831 4.66665 6.33308 4.31666 6.33308 3.88888V3.11112H15.6664V3.88888C15.6664 4.31666 16.0164 4.66665 16.4442 4.66665C16.872 4.66665 17.222 4.31666 17.222 3.88888V3.11112H18.3264C19.003 3.11112 19.5553 3.66333 19.5553 4.33998V6.61112H2.44426V4.33998ZM2.44426 8.16665H19.5554V18.2155C19.5554 18.8922 19.0032 19.4444 18.3265 19.4444H3.67312C2.99648 19.4444 2.44426 18.8922 2.44426 18.2155V8.16665Z" fill="#3E3E3E"/>
</g>
<defs>
<clipPath id="clip0_112_832">
<rect width="21" height="21" fill="white" transform="translate(0.5)"/>
</clipPath>
</defs>
</svg>
