<svg width="21" height="21" viewBox="0 0 21 21" fill="none" xmlns="http://www.w3.org/2000/svg">
<g clip-path="url(#clip0_58_1152)">
<path d="M3.17312 21H17.8265C19.3626 21 20.6109 19.7517 20.6109 18.2155V4.33998C20.6109 2.80387 19.3626 1.55553 17.8265 1.55553H16.722V0.777763C16.722 0.349981 16.372 0 15.9442 0C15.5164 0 15.1664 0.349981 15.1664 0.777763V1.55553H5.83315V0.777763C5.83315 0.349981 5.4831 0 5.05532 0C4.62753 0 4.27755 0.349981 4.27755 0.777763V1.55553H3.17312C1.63702 1.55553 0.388672 2.80387 0.388672 4.33998V18.2155C0.388672 19.7517 1.63702 21 3.17312 21ZM1.94426 4.33998C1.94426 3.66333 2.49648 3.11112 3.17312 3.11112H4.27755V3.88888C4.27755 4.31666 4.62753 4.66665 5.05532 4.66665C5.4831 4.66665 5.83308 4.31666 5.83308 3.88888V3.11112H15.1664V3.88888C15.1664 4.31666 15.5164 4.66665 15.9442 4.66665C16.372 4.66665 16.722 4.31666 16.722 3.88888V3.11112H17.8264C18.503 3.11112 19.0553 3.66333 19.0553 4.33998V6.61112H1.94426V4.33998ZM1.94426 8.16665H19.0554V18.2155C19.0554 18.8922 18.5032 19.4444 17.8265 19.4444H3.17312C2.49648 19.4444 1.94426 18.8922 1.94426 18.2155V8.16665Z" fill="#1C95C9"/>
</g>
<defs>
<clipPath id="clip0_58_1152">
<rect width="21" height="21" fill="white"/>
</clipPath>
</defs>
</svg>
