<svg width="21" height="21" viewBox="0 0 21 21" fill="none" xmlns="http://www.w3.org/2000/svg">
<path d="M14.2412 12.3541L11.3132 10.1582V5.68492C11.3132 5.23514 10.9496 4.87158 10.4999 4.87158C10.0501 4.87158 9.68652 5.23514 9.68652 5.68492V10.5649C9.68652 10.8211 9.8069 11.0626 10.0119 11.2156L13.2651 13.6555C13.4115 13.7653 13.5824 13.8182 13.7523 13.8182C14.0004 13.8182 14.2444 13.7068 14.4038 13.492C14.6739 13.1333 14.6007 12.6234 14.2412 12.3541Z" fill="#1C95C9"/>
<path d="M10.5 0C4.70995 0 0 4.70995 0 10.5C0 16.2901 4.70995 21 10.5 21C16.2901 21 21 16.2901 21 10.5C21 4.70995 16.2901 0 10.5 0ZM10.5 19.3734C5.60786 19.3734 1.62664 15.3921 1.62664 10.5C1.62664 5.60786 5.60786 1.62664 10.5 1.62664C15.393 1.62664 19.3734 5.60786 19.3734 10.5C19.3734 15.3921 15.3921 19.3734 10.5 19.3734Z" fill="#1C95C9"/>
</svg>
