<svg width="47" height="46" viewBox="0 0 47 46" fill="none" xmlns="http://www.w3.org/2000/svg">
<g clip-path="url(#clip0_114_583)">
<path d="M23.5049 46C36.4836 46 47.0049 35.7025 47.0049 23C47.0049 10.2975 36.4836 0 23.5049 0C10.5262 0 0.00488281 10.2975 0.00488281 23C0.00488281 35.7025 10.5262 46 23.5049 46Z" fill="#3B5998"/>
<path d="M29.4128 23.9004H25.2195V38.9358H18.8663V23.9004H15.8447V18.6164H18.8663V15.197C18.8663 12.7518 20.0531 8.92285 25.2761 8.92285L29.9821 8.94212V14.0712H26.5676C26.0075 14.0712 25.2199 14.3451 25.2199 15.5115V18.6213H29.9679L29.4128 23.9004Z" fill="white"/>
</g>
<defs>
<clipPath id="clip0_114_583">
<rect width="47" height="46" fill="white" transform="translate(0.00488281)"/>
</clipPath>
</defs>
</svg>
