<svg width="47" height="46" viewBox="0 0 47 46" fill="none" xmlns="http://www.w3.org/2000/svg">
<g clip-path="url(#clip0_114_566)">
<path d="M46.5 23C46.5 10.2975 36.2025 0 23.5 0C10.7975 0 0.5 10.2975 0.5 23C0.5 35.7025 10.7975 46 23.5 46C36.2025 46 46.5 35.7025 46.5 23Z" fill="url(#paint0_linear_114_566)"/>
<path opacity="0.1" d="M40.8103 7.86848C37.4571 14.024 32.7149 20.3732 26.7894 26.2987C20.8638 32.2243 14.5146 36.9574 8.36817 40.3106C7.98281 39.9757 7.60856 39.6266 7.2454 39.2635C5.05028 37.1416 3.29956 34.604 2.09533 31.7986C0.891089 28.9931 0.257434 25.976 0.231311 22.9231C0.205187 19.8702 0.787117 16.8427 1.94317 14.0171C3.09922 11.1914 4.80626 8.62422 6.96474 6.46513C9.12323 4.30605 11.69 2.59829 14.5153 1.44145C17.3406 0.28461 20.368 -0.298165 23.4209 -0.272894C26.4737 -0.247622 29.491 0.38519 32.2968 1.58864C35.1026 2.7921 37.6407 4.54211 39.7632 6.73663C40.1263 7.09979 40.4754 7.47707 40.8103 7.86848Z" fill="white"/>
<path d="M28.9472 10.8948H18.0524C16.2866 10.8948 14.5932 11.5962 13.3446 12.8448C12.096 14.0934 11.3945 15.7869 11.3945 17.5527V28.4474C11.3945 30.2132 12.096 31.9067 13.3446 33.1553C14.5932 34.4038 16.2866 35.1053 18.0524 35.1053H28.9472C30.7129 35.1053 32.4064 34.4038 33.655 33.1553C34.9036 31.9067 35.6051 30.2132 35.6051 28.4474V17.5527C35.6051 15.7869 34.9036 14.0934 33.655 12.8448C32.4064 11.5962 30.7129 10.8948 28.9472 10.8948ZM33.4866 27.4911C33.4866 28.9487 32.9076 30.3465 31.877 31.3772C30.8463 32.4079 29.4484 32.9869 27.9908 32.9869H19.0087C17.5512 32.9869 16.1533 32.4079 15.1226 31.3772C14.092 30.3465 13.513 28.9487 13.513 27.4911V18.509C13.513 17.0514 14.092 15.6535 15.1226 14.6229C16.1533 13.5922 17.5512 13.0132 19.0087 13.0132H27.9908C29.4484 13.0132 30.8463 13.5922 31.877 14.6229C32.9076 15.6535 33.4866 17.0514 33.4866 18.509V27.4911Z" fill="white"/>
<path d="M27.9152 18.63L27.8577 18.5725L27.8093 18.5241C26.665 17.3838 25.1153 16.7439 23.4998 16.7446C22.6841 16.7502 21.8774 16.9164 21.1259 17.2338C20.3744 17.5512 19.6927 18.0136 19.12 18.5945C18.5472 19.1754 18.0945 19.8635 17.7878 20.6194C17.481 21.3753 17.3262 22.1843 17.3322 23C17.331 24.6556 17.9836 26.2446 19.148 27.4215C19.7184 27.9988 20.398 28.4567 21.1473 28.7684C21.8965 29.0802 22.7004 29.2396 23.5119 29.2373C24.7292 29.2117 25.9128 28.8325 26.9183 28.1459C27.9238 27.4593 28.7077 26.4949 29.1745 25.3704C29.6414 24.2458 29.7709 23.0098 29.5472 21.8129C29.3236 20.6161 28.7566 19.5101 27.9152 18.63ZM23.4998 27.1037C22.6858 27.1151 21.8869 26.8842 21.2045 26.4402C20.5221 25.9963 19.9872 25.3595 19.6678 24.6107C19.3483 23.8619 19.2588 23.0351 19.4106 22.2353C19.5624 21.4355 19.9486 20.6989 20.5202 20.1192C21.0917 19.5396 21.8228 19.143 22.6204 18.9799C23.4179 18.8168 24.246 18.8947 24.9992 19.2035C25.7524 19.5124 26.3967 20.0382 26.8502 20.7143C27.3037 21.3903 27.5459 22.186 27.546 23C27.55 23.5352 27.4485 24.0659 27.2473 24.5619C27.046 25.0578 26.7491 25.5092 26.3733 25.8903C25.9975 26.2714 25.5504 26.5748 25.0573 26.783C24.5643 26.9912 24.035 27.1001 23.4998 27.1037Z" fill="white"/>
<path d="M31.4985 16.4573C31.5001 16.6515 31.4634 16.8441 31.3905 17.024C31.3175 17.204 31.2098 17.3679 31.0735 17.5062C30.9372 17.6445 30.7749 17.7545 30.596 17.83C30.417 17.9055 30.225 17.945 30.0308 17.9462C29.8382 17.9461 29.6476 17.9078 29.4699 17.8335C29.2922 17.7593 29.1311 17.6505 28.9958 17.5134C28.7908 17.3054 28.6513 17.0418 28.5947 16.7553C28.5381 16.4687 28.5668 16.1719 28.6774 15.9015C28.7879 15.6312 28.9753 15.3992 29.2165 15.2344C29.4576 15.0696 29.7418 14.9792 30.0338 14.9744C30.3756 14.9743 30.7066 15.0943 30.9689 15.3133L30.9992 15.3436C31.048 15.3833 31.0926 15.4279 31.1324 15.4767L31.1656 15.513C31.3823 15.7799 31.4999 16.1135 31.4985 16.4573Z" fill="white"/>
</g>
<defs>
<linearGradient id="paint0_linear_114_566" x1="7.23658" y1="6.73658" x2="39.7634" y2="39.2634" gradientUnits="userSpaceOnUse">
<stop stop-color="#FAE100"/>
<stop offset="0.15" stop-color="#FCB720"/>
<stop offset="0.3" stop-color="#FF7950"/>
<stop offset="0.5" stop-color="#FF1C74"/>
<stop offset="1" stop-color="#6C1CD1"/>
</linearGradient>
<clipPath id="clip0_114_566">
<rect width="46" height="46" fill="white" transform="translate(0.5)"/>
</clipPath>
</defs>
</svg>
