<svg width="49" height="46" viewBox="0 0 49 46" fill="none" xmlns="http://www.w3.org/2000/svg">
<g clip-path="url(#clip0_114_561)">
<path d="M24.5 45.9993C37.7548 45.9993 48.5 35.7018 48.5 22.9993C48.5 10.2967 37.7548 -0.000732422 24.5 -0.000732422C11.2452 -0.000732422 0.5 10.2967 0.5 22.9993C0.5 35.7018 11.2452 45.9993 24.5 45.9993Z" fill="#007AB9"/>
<path d="M38.8395 24.8503V34.3327H33.1029V25.4857C33.1029 23.2644 32.2746 21.7474 30.1975 21.7474C28.6124 21.7474 27.6708 22.7687 27.2549 23.7576C27.1039 24.111 27.065 24.6018 27.065 25.0975V34.3322H21.3279C21.3279 34.3322 21.4049 19.3485 21.3279 17.7975H27.0654V20.1406C27.0539 20.1591 27.0376 20.1771 27.0273 20.1947H27.0654V20.1406C27.8278 19.0164 29.1874 17.4092 32.2357 17.4092C36.0099 17.4092 38.8395 19.7724 38.8395 24.8503ZM15.3264 9.82715C13.364 9.82715 12.0801 11.0616 12.0801 12.6836C12.0801 14.2711 13.3268 15.5413 15.2511 15.5413H15.2883C17.2892 15.5413 18.5334 14.2711 18.5334 12.6836C18.4953 11.0616 17.2892 9.82715 15.3264 9.82715ZM12.4211 34.3327H18.156V17.7975H12.4211V34.3327Z" fill="#F1F2F2"/>
</g>
<defs>
<clipPath id="clip0_114_561">
<rect width="48" height="46" fill="white" transform="translate(0.5)"/>
</clipPath>
</defs>
</svg>
