<svg width="47" height="46" viewBox="0 0 47 46" fill="none" xmlns="http://www.w3.org/2000/svg">
<path d="M23.5 0C18.951 0 14.5042 1.34893 10.7219 3.8762C6.93956 6.40347 3.9916 9.99558 2.25078 14.1983C0.509966 18.401 0.054489 23.0255 0.941949 27.4871C1.82941 31.9486 4.01995 36.0468 7.23655 39.2634C10.4532 42.4801 14.5514 44.6706 19.0129 45.558C23.4745 46.4455 28.099 45.99 32.3017 44.2492C36.5044 42.5084 40.0965 39.5604 42.6238 35.7781C45.1511 31.9958 46.5 27.549 46.5 23C46.4919 16.9025 44.0661 11.057 39.7546 6.74545C35.443 2.43386 29.5975 0.00806318 23.5 0ZM26.5475 30.1012L24.5063 32.1425C23.8457 32.8125 23.0576 33.3433 22.1886 33.7038C21.3195 34.0642 20.3871 34.247 19.4463 34.2412C18.0264 34.2435 16.6377 33.8244 15.4561 33.0371C14.2744 32.2498 13.3529 31.1297 12.8081 29.8184C12.2633 28.5072 12.1197 27.0638 12.3955 25.671C12.6713 24.2781 13.3541 22.9984 14.3575 21.9937L16.3988 19.9525C16.5285 19.8162 16.6846 19.7077 16.8576 19.6336C17.0306 19.5594 17.2168 19.5212 17.405 19.5212C17.5932 19.5212 17.7794 19.5594 17.9524 19.6336C18.1254 19.7077 18.2815 19.8162 18.4113 19.9525C18.5477 20.0851 18.6562 20.2438 18.7303 20.4191C18.8043 20.5944 18.8425 20.7828 18.8425 20.9731C18.8425 21.1634 18.8043 21.3518 18.7303 21.5271C18.6562 21.7024 18.5477 21.8611 18.4113 21.9937L16.37 24.0062C15.5733 24.82 15.1291 25.9149 15.1338 27.0537C15.1261 27.6185 15.2315 28.1791 15.4438 28.7025C15.6561 29.2258 15.971 29.7014 16.37 30.1012C16.7715 30.5044 17.2486 30.8244 17.7741 31.0427C18.2995 31.261 18.8629 31.3734 19.4319 31.3734C20.0009 31.3734 20.5643 31.261 21.0897 31.0427C21.6151 30.8244 22.0923 30.5044 22.4938 30.1012L24.5063 28.0887C24.6389 27.9523 24.7976 27.8438 24.9729 27.7697C25.1482 27.6957 25.3366 27.6575 25.5269 27.6575C25.7172 27.6575 25.9056 27.6957 26.0809 27.7697C26.2562 27.8438 26.4149 27.9523 26.5475 28.0887C26.6838 28.2185 26.7923 28.3746 26.8664 28.5476C26.9406 28.7206 26.9788 28.9068 26.9788 29.095C26.9788 29.2832 26.9406 29.4694 26.8664 29.6424C26.7923 29.8154 26.6838 29.9715 26.5475 30.1012ZM27.5538 20.9587L21.4588 27.0537C21.329 27.19 21.1729 27.2985 20.9999 27.3727C20.8269 27.4468 20.6407 27.485 20.4525 27.485C20.2643 27.485 20.0781 27.4468 19.9051 27.3727C19.7321 27.2985 19.576 27.19 19.4463 27.0537C19.31 26.924 19.2015 26.7679 19.1273 26.5949C19.0532 26.4219 19.015 26.2357 19.015 26.0475C19.015 25.8593 19.0532 25.6731 19.1273 25.5001C19.2015 25.3271 19.31 25.171 19.4463 25.0412L25.5413 18.9462C25.6729 18.8119 25.8299 18.705 26.0031 18.6317C26.1763 18.5584 26.3624 18.5202 26.5505 18.5192C26.7386 18.5183 26.925 18.5546 27.099 18.6262C27.2729 18.6977 27.431 18.803 27.564 18.936C27.697 19.069 27.8023 19.2271 27.8738 19.401C27.9454 19.575 27.9817 19.7614 27.9808 19.9495C27.9798 20.1376 27.9416 20.3237 27.8683 20.4969C27.795 20.6701 27.6881 20.8271 27.5538 20.9587ZM32.6425 24.0062L30.6013 26.0475C30.473 26.1857 30.3172 26.2955 30.1439 26.3698C29.9705 26.4441 29.7836 26.4812 29.595 26.4787C29.4069 26.4784 29.2207 26.4401 29.0478 26.366C28.8749 26.2918 28.7187 26.1835 28.5888 26.0475C28.4523 25.9148 28.3438 25.7562 28.2698 25.5809C28.1957 25.4056 28.1575 25.2172 28.1575 25.0269C28.1575 24.8366 28.1957 24.6482 28.2698 24.4729C28.3438 24.2976 28.4523 24.1389 28.5888 24.0062L30.63 21.9937C31.4268 21.18 31.8709 20.0851 31.8663 18.9462C31.8739 18.3815 31.7685 17.8209 31.5562 17.2975C31.3439 16.7741 31.029 16.2985 30.63 15.8987C30.2285 15.4955 29.7514 15.1756 29.2259 14.9573C28.7005 14.739 28.1371 14.6266 27.5681 14.6266C26.9991 14.6266 26.4358 14.739 25.9103 14.9573C25.3849 15.1756 24.9077 15.4955 24.5063 15.8987L22.4938 17.9112C22.3611 18.0477 22.2024 18.1562 22.0271 18.2302C21.8518 18.3043 21.6634 18.3425 21.4731 18.3425C21.2828 18.3425 21.0944 18.3043 20.9191 18.2302C20.7438 18.1562 20.5852 18.0477 20.4525 17.9112C20.3162 17.7815 20.2077 17.6254 20.1336 17.4524C20.0594 17.2794 20.0212 17.0932 20.0212 16.905C20.0212 16.7168 20.0594 16.5306 20.1336 16.3576C20.2077 16.1846 20.3162 16.0285 20.4525 15.8987L22.4938 13.8575C23.8411 12.5189 25.6641 11.7689 27.5633 11.772C29.4626 11.7751 31.2831 12.5309 32.6261 13.8739C33.9691 15.2169 34.7249 17.0374 34.728 18.9367C34.7311 20.8359 33.9811 22.6589 32.6425 24.0062Z" fill="#2196F3"/>
</svg>
