<svg width="46" height="46" viewBox="0 0 46 46" fill="none" xmlns="http://www.w3.org/2000/svg">
<path d="M23.2525 45.5051C35.8184 45.5051 46.0051 35.3184 46.0051 22.7525C46.0051 10.1867 35.8184 0 23.2525 0C10.6867 0 0.5 10.1867 0.5 22.7525C0.5 35.3184 10.6867 45.5051 23.2525 45.5051Z" fill="#29A71A"/>
<path d="M33.2847 12.7207C30.9175 10.3299 27.7738 8.86368 24.4208 8.58654C21.0677 8.30941 17.726 9.2396 14.9984 11.2093C12.2708 13.1791 10.3368 16.0587 9.54536 19.3288C8.75391 22.5988 9.15706 26.0441 10.6821 29.0431L9.18509 36.311C9.16955 36.3833 9.16911 36.4581 9.1838 36.5306C9.19848 36.6031 9.22796 36.6718 9.27041 36.7324C9.33259 36.8244 9.42135 36.8952 9.52484 36.9354C9.62832 36.9756 9.74161 36.9832 9.84956 36.9573L16.9727 35.269C19.9632 36.7554 23.3842 37.1327 26.6268 36.3336C29.8694 35.5345 32.7233 33.6109 34.6807 30.9051C36.6382 28.1993 37.5722 24.8868 37.3165 21.557C37.0609 18.2271 35.6322 15.096 33.2847 12.7207ZM31.0637 30.447C29.4258 32.0803 27.3168 33.1584 25.0337 33.5295C22.7506 33.9006 20.4086 33.5459 18.3378 32.5154L17.345 32.0242L12.978 33.0584L12.991 33.0041L13.8959 28.6087L13.4098 27.6495C12.3517 25.5714 11.9785 23.2118 12.3435 20.9086C12.7086 18.6055 13.7932 16.4769 15.442 14.8279C17.5138 12.7568 20.3234 11.5933 23.2529 11.5933C26.1824 11.5933 28.9919 12.7568 31.0637 14.8279C31.0814 14.8482 31.1004 14.8672 31.1206 14.8848C33.1667 16.9613 34.3089 19.7625 34.2983 22.6776C34.2876 25.5928 33.1249 28.3855 31.0637 30.447Z" fill="white"/>
<path d="M30.6763 27.2228C30.1411 28.0657 29.2956 29.0973 28.2329 29.3533C26.3714 29.8032 23.5144 29.3688 19.9593 26.0542L19.9153 26.0154C16.7894 23.117 15.9776 20.7047 16.1741 18.7915C16.2827 17.7055 17.1876 16.7231 17.9503 16.0818C18.0709 15.9789 18.2139 15.9057 18.3679 15.8679C18.5219 15.8301 18.6825 15.8289 18.8371 15.8643C18.9916 15.8997 19.1357 15.9708 19.2578 16.0719C19.3799 16.173 19.4767 16.3012 19.5404 16.4464L20.691 19.0319C20.7658 19.1996 20.7935 19.3844 20.7711 19.5666C20.7488 19.7488 20.6773 19.9215 20.5643 20.0661L19.9826 20.8211C19.8577 20.977 19.7824 21.1667 19.7663 21.3657C19.7502 21.5648 19.794 21.7641 19.8921 21.938C20.2178 22.5094 20.9987 23.3497 21.8648 24.128C22.837 25.007 23.9151 25.8111 24.5977 26.0852C24.7804 26.1598 24.9812 26.178 25.1742 26.1375C25.3673 26.0969 25.5438 25.9995 25.681 25.8577L26.3559 25.1777C26.4861 25.0493 26.648 24.9577 26.8251 24.9123C27.0023 24.8669 27.1883 24.8692 27.3642 24.9191L30.0971 25.6948C30.2479 25.741 30.386 25.8211 30.5011 25.929C30.6161 26.0368 30.705 26.1695 30.7609 26.317C30.8168 26.4644 30.8382 26.6227 30.8235 26.7797C30.8089 26.9367 30.7585 27.0883 30.6763 27.2228Z" fill="white"/>
</svg>
